<svg width="155" height="183" viewBox="0 0 155 183" fill="none" xmlns="http://www.w3.org/2000/svg">
<g filter="url(#filter0_d)">
<path fill-rule="evenodd" clip-rule="evenodd" d="M114.824 34.1018C115.21 33.7918 115.499 33.3709 115.633 32.8702C115.837 32.1108 115.639 31.3315 115.164 30.7298L121.967 16.7833C122.428 15.8382 122.24 14.7054 121.491 13.9215C120.742 13.1374 119.583 12.8598 118.563 13.2197L108.113 16.9072L106.074 6.47888C105.881 5.49079 105.113 4.68693 104.105 4.41678C103.097 4.14663 102.03 4.45896 101.369 5.21806L94.3882 13.2296L87.1822 4.81123C86.4788 3.9898 85.3365 3.6507 84.2957 3.95505C83.2553 4.25949 82.5255 5.14605 82.4523 6.19522L81.4026 21.2208C80.2485 21.2338 79.2203 21.9455 78.9283 23.0351C78.8406 23.3626 78.8275 23.6938 78.8791 24.0128C78.3998 24.0039 77.9201 23.9996 77.4399 24C59.8078 24.0144 42.7602 30.3241 29.3676 41.7927C15.975 53.2613 7.11754 69.1351 4.39055 86.5551C1.66357 103.975 5.24627 121.796 14.4934 136.809C23.3907 151.254 36.9694 162.185 52.9347 167.804C53.9757 168.17 55.1026 167.59 55.4407 166.539C55.7788 165.489 55.1999 164.366 54.1595 163.998C39.1006 158.673 26.294 148.347 17.896 134.713C9.14831 120.511 5.75908 103.652 8.3388 87.1732C10.9185 70.694 19.2976 55.6774 31.967 44.8281C44.6364 33.9789 60.7633 28.0099 77.4432 27.9963C94.1231 27.9828 110.26 33.9255 122.947 44.7541C135.634 55.5827 144.037 70.5856 146.644 87.0606C149.25 103.536 145.889 120.4 137.164 134.616C128.788 148.264 115.998 158.61 100.948 163.96C99.9084 164.329 99.3313 165.453 99.6711 166.503C100.011 167.553 101.139 168.132 102.179 167.763C118.135 162.119 131.696 151.166 140.57 136.706C149.793 121.679 153.346 103.852 150.591 86.4361C147.836 69.0206 138.952 53.1613 125.541 41.7144C122.181 38.8468 118.593 36.3033 114.824 34.1018Z" fill="url(#paint0_linear)"/>
</g>
<g filter="url(#filter1_d)">
<circle cx="77.5" cy="162" r="18" fill="url(#paint1_linear)"/>
<circle cx="77.5" cy="162" r="16.5" stroke="url(#paint2_linear)" stroke-opacity="0.72" stroke-width="3"/>
</g>
<g filter="url(#filter2_d)">
<path d="M85.0534 162.824V169.2C85.0534 170.305 84.1579 171.2 83.0534 171.2H71.9746C70.87 171.2 69.9746 170.306 69.9746 169.202C69.9746 167.082 69.9746 163.895 69.9746 162.824" stroke="white" stroke-width="2" stroke-linecap="round" stroke-linejoin="round"/>
<path d="M68.3008 158.637H86.7012V162.824H68.3008V158.637Z" stroke="white" stroke-width="2" stroke-linecap="round" stroke-linejoin="round"/>
<path d="M77.5 171.2V158.637" stroke="white" stroke-width="2" stroke-linecap="round" stroke-linejoin="round"/>
<path d="M72.7427 156.268C74.1443 157.368 75.7533 158.174 77.4733 158.637C77.0121 156.914 76.2075 155.302 75.108 153.899C73.6382 152.427 72.8052 152.653 72.1472 153.307C71.4893 153.962 71.2729 154.796 72.7427 156.268Z" stroke="white" stroke-width="2" stroke-linecap="round" stroke-linejoin="round"/>
<path d="M82.259 156.268C80.8571 157.368 79.2477 158.174 77.5273 158.637C77.9891 156.914 78.7936 155.303 79.8926 153.899C81.3635 152.427 82.1966 152.653 82.8545 153.307C83.5125 153.962 83.7288 154.796 82.259 156.268Z" stroke="white" stroke-width="2" stroke-linecap="round" stroke-linejoin="round"/>
</g>
<g filter="url(#filter3_d)">
<path d="M97.0837 21.4149L96.6592 22.3203L98.0345 22.6888L97.6493 24.1264L96.008 23.6866L94.9962 25.7873L93.4794 25.3809L94.4855 23.2786L93.5347 23.0238L92.5399 25.1291L91.0287 24.7242L92.0292 22.6205L90.7557 22.2792L91.1409 20.8417L92.6917 21.2572L93.1219 20.3534L91.7749 19.9924L92.1692 18.5209L93.7935 18.9562L94.791 16.8637L96.3078 17.2701L95.299 19.3595L96.2385 19.6113L97.236 17.5188L98.7528 17.9253L97.7497 20.0162L99.0458 20.3635L98.6515 21.835L97.0837 21.4149ZM94.2028 21.6621L95.1367 21.9123L95.5669 21.0085L94.6274 20.7568L94.2028 21.6621ZM103.925 28.1799L101.656 27.5717L102.83 23.1911C102.972 22.6591 103.114 22.1754 103.255 21.74C103.07 21.8724 102.849 22.0032 102.592 22.1325L101.444 22.6561L100.666 20.919L104.128 19.3655L106.142 19.9053L103.925 28.1799Z" fill="white"/>
</g>
<defs>
<filter id="filter0_d" x="0.5" y="0.844849" width="154" height="170.069" filterUnits="userSpaceOnUse" color-interpolation-filters="sRGB">
<feFlood flood-opacity="0" result="BackgroundImageFix"/>
<feColorMatrix in="SourceAlpha" type="matrix" values="0 0 0 0 0 0 0 0 0 0 0 0 0 0 0 0 0 0 127 0" result="hardAlpha"/>
<feOffset/>
<feGaussianBlur stdDeviation="1.5"/>
<feColorMatrix type="matrix" values="0 0 0 0 0 0 0 0 0 0 0 0 0 0 0 0 0 0 0.25 0"/>
<feBlend mode="normal" in2="BackgroundImageFix" result="effect1_dropShadow"/>
<feBlend mode="normal" in="SourceGraphic" in2="effect1_dropShadow" result="shape"/>
</filter>
<filter id="filter1_d" x="56.5" y="141" width="42" height="42" filterUnits="userSpaceOnUse" color-interpolation-filters="sRGB">
<feFlood flood-opacity="0" result="BackgroundImageFix"/>
<feColorMatrix in="SourceAlpha" type="matrix" values="0 0 0 0 0 0 0 0 0 0 0 0 0 0 0 0 0 0 127 0" result="hardAlpha"/>
<feOffset/>
<feGaussianBlur stdDeviation="1.5"/>
<feColorMatrix type="matrix" values="0 0 0 0 0 0 0 0 0 0 0 0 0 0 0 0 0 0 0.25 0"/>
<feBlend mode="normal" in2="BackgroundImageFix" result="effect1_dropShadow"/>
<feBlend mode="normal" in="SourceGraphic" in2="effect1_dropShadow" result="shape"/>
</filter>
<filter id="filter2_d" x="64.5" y="150" width="26" height="26" filterUnits="userSpaceOnUse" color-interpolation-filters="sRGB">
<feFlood flood-opacity="0" result="BackgroundImageFix"/>
<feColorMatrix in="SourceAlpha" type="matrix" values="0 0 0 0 0 0 0 0 0 0 0 0 0 0 0 0 0 0 127 0" result="hardAlpha"/>
<feOffset dy="1"/>
<feGaussianBlur stdDeviation="1"/>
<feColorMatrix type="matrix" values="0 0 0 0 0 0 0 0 0 0 0 0 0 0 0 0 0 0 0.2 0"/>
<feBlend mode="normal" in2="BackgroundImageFix" result="effect1_dropShadow"/>
<feBlend mode="normal" in="SourceGraphic" in2="effect1_dropShadow" result="shape"/>
</filter>
<filter id="filter3_d" x="90.7559" y="16.8638" width="16.3867" height="12.3161" filterUnits="userSpaceOnUse" color-interpolation-filters="sRGB">
<feFlood flood-opacity="0" result="BackgroundImageFix"/>
<feColorMatrix in="SourceAlpha" type="matrix" values="0 0 0 0 0 0 0 0 0 0 0 0 0 0 0 0 0 0 127 0" result="hardAlpha"/>
<feOffset dx="1" dy="1"/>
<feColorMatrix type="matrix" values="0 0 0 0 0 0 0 0 0 0 0 0 0 0 0 0 0 0 0.25 0"/>
<feBlend mode="normal" in2="BackgroundImageFix" result="effect1_dropShadow"/>
<feBlend mode="normal" in="SourceGraphic" in2="effect1_dropShadow" result="shape"/>
</filter>
<linearGradient id="paint0_linear" x1="3.5" y1="85.8792" x2="151.5" y2="85.8792" gradientUnits="userSpaceOnUse">
<stop stop-color="#FF512F"/>
<stop offset="1" stop-color="#DD2476"/>
</linearGradient>
<linearGradient id="paint1_linear" x1="59.5" y1="162" x2="95.5" y2="162" gradientUnits="userSpaceOnUse">
<stop stop-color="#FF512F"/>
<stop offset="1" stop-color="#DD2476"/>
</linearGradient>
<linearGradient id="paint2_linear" x1="59.5" y1="142.5" x2="96.7823" y2="175.735" gradientUnits="userSpaceOnUse">
<stop stop-color="white" stop-opacity="0.8"/>
<stop offset="1" stop-color="white" stop-opacity="0.29"/>
</linearGradient>
</defs>
</svg>
