<svg width="69" height="16" viewBox="0 0 69 16" fill="none" xmlns="http://www.w3.org/2000/svg">
<path d="M3.43696 3.81916L3.43695 3.8191C3.41128 3.63244 3.37248 3.30223 3.50601 2.84656C3.63844 2.3947 3.93463 1.83763 4.5465 1.17658L4.694 1.01722L4.87243 1.14096C5.91036 1.86074 6.56405 2.59625 6.69124 3.52127C6.76688 4.07045 6.62581 4.5746 6.44623 4.96599C6.28171 5.32454 6.0792 5.60097 5.95853 5.75006C5.58409 6.92843 5.52735 8.29914 5.88196 9.48C6.23924 10.6698 7.0081 11.6544 8.28512 12.0843L8.29251 12.0867L8.29972 12.0897L8.3014 12.0904L8.51937 12.1792L8.44382 12.4021L8.16597 13.222L8.0859 13.4583L7.84945 13.3787C7.01415 13.0975 6.11174 13.3456 5.5992 13.9729L5.44734 14.1588L5.25544 14.0146L4.52175 13.4634L4.31356 13.307L4.47832 13.1054C4.84875 12.652 5.33201 12.322 5.86754 12.1221C5.82159 12.0751 5.7765 12.0271 5.7323 11.9783C5.24223 12.1331 4.48092 12.2775 3.7193 12.0212C3.53323 11.9586 3.20928 11.843 2.83236 11.5247C2.45787 11.2084 2.04295 10.7023 1.64938 9.87373L1.54577 9.6556L1.76018 9.5445C2.70751 9.0536 3.52882 8.83899 4.32431 8.98602C4.32177 8.97146 4.31928 8.95688 4.31683 8.94228C4.2347 8.92067 4.1457 8.89475 4.04928 8.8623C3.57303 8.702 2.92659 8.3945 2.49814 7.84818C2.37589 7.69236 2.18223 7.42346 2.06766 6.96311C1.95408 6.50666 1.9221 5.87834 2.09182 5.00353L2.13607 4.77542L2.3668 4.8029C3.21546 4.90396 3.78682 5.09479 4.17324 5.28879C3.85178 4.92358 3.51954 4.4184 3.43696 3.81916Z" fill="white"/>
<path d="M3.43696 3.81916L3.43695 3.8191C3.41128 3.63244 3.37248 3.30223 3.50601 2.84656C3.63844 2.3947 3.93463 1.83763 4.5465 1.17658L4.694 1.01722L4.87243 1.14096C5.91036 1.86074 6.56405 2.59625 6.69124 3.52127C6.76688 4.07045 6.62581 4.5746 6.44623 4.96599C6.28171 5.32454 6.0792 5.60097 5.95853 5.75006C5.58409 6.92843 5.52735 8.29914 5.88196 9.48C6.23924 10.6698 7.0081 11.6544 8.28512 12.0843L8.29251 12.0867L8.29972 12.0897L8.3014 12.0904L8.51937 12.1792L8.44382 12.4021L8.16597 13.222L8.0859 13.4583L7.84945 13.3787C7.01415 13.0975 6.11174 13.3456 5.5992 13.9729L5.44734 14.1588L5.25544 14.0146L4.52175 13.4634L4.31356 13.307L4.47832 13.1054C4.84875 12.652 5.33201 12.322 5.86754 12.1221C5.82159 12.0751 5.7765 12.0271 5.7323 11.9783C5.24223 12.1331 4.48092 12.2775 3.7193 12.0212C3.53323 11.9586 3.20928 11.843 2.83236 11.5247C2.45787 11.2084 2.04295 10.7023 1.64938 9.87373L1.54577 9.6556L1.76018 9.5445C2.70751 9.0536 3.52882 8.83899 4.32431 8.98602C4.32177 8.97146 4.31928 8.95688 4.31683 8.94228C4.2347 8.92067 4.1457 8.89475 4.04928 8.8623C3.57303 8.702 2.92659 8.3945 2.49814 7.84818C2.37589 7.69236 2.18223 7.42346 2.06766 6.96311C1.95408 6.50666 1.9221 5.87834 2.09182 5.00353L2.13607 4.77542L2.3668 4.8029C3.21546 4.90396 3.78682 5.09479 4.17324 5.28879C3.85178 4.92358 3.51954 4.4184 3.43696 3.81916Z" fill="url(#paint0_linear_28995_7399)"/>
<path d="M3.43696 3.81916L3.43695 3.8191C3.41128 3.63244 3.37248 3.30223 3.50601 2.84656C3.63844 2.3947 3.93463 1.83763 4.5465 1.17658L4.694 1.01722L4.87243 1.14096C5.91036 1.86074 6.56405 2.59625 6.69124 3.52127C6.76688 4.07045 6.62581 4.5746 6.44623 4.96599C6.28171 5.32454 6.0792 5.60097 5.95853 5.75006C5.58409 6.92843 5.52735 8.29914 5.88196 9.48C6.23924 10.6698 7.0081 11.6544 8.28512 12.0843L8.29251 12.0867L8.29972 12.0897L8.3014 12.0904L8.51937 12.1792L8.44382 12.4021L8.16597 13.222L8.0859 13.4583L7.84945 13.3787C7.01415 13.0975 6.11174 13.3456 5.5992 13.9729L5.44734 14.1588L5.25544 14.0146L4.52175 13.4634L4.31356 13.307L4.47832 13.1054C4.84875 12.652 5.33201 12.322 5.86754 12.1221C5.82159 12.0751 5.7765 12.0271 5.7323 11.9783C5.24223 12.1331 4.48092 12.2775 3.7193 12.0212C3.53323 11.9586 3.20928 11.843 2.83236 11.5247C2.45787 11.2084 2.04295 10.7023 1.64938 9.87373L1.54577 9.6556L1.76018 9.5445C2.70751 9.0536 3.52882 8.83899 4.32431 8.98602C4.32177 8.97146 4.31928 8.95688 4.31683 8.94228C4.2347 8.92067 4.1457 8.89475 4.04928 8.8623C3.57303 8.702 2.92659 8.3945 2.49814 7.84818C2.37589 7.69236 2.18223 7.42346 2.06766 6.96311C1.95408 6.50666 1.9221 5.87834 2.09182 5.00353L2.13607 4.77542L2.3668 4.8029C3.21546 4.90396 3.78682 5.09479 4.17324 5.28879C3.85178 4.92358 3.51954 4.4184 3.43696 3.81916Z" stroke="#E3B544" stroke-width="0.5"/>
<path d="M3.43696 3.81916L3.43695 3.8191C3.41128 3.63244 3.37248 3.30223 3.50601 2.84656C3.63844 2.3947 3.93463 1.83763 4.5465 1.17658L4.694 1.01722L4.87243 1.14096C5.91036 1.86074 6.56405 2.59625 6.69124 3.52127C6.76688 4.07045 6.62581 4.5746 6.44623 4.96599C6.28171 5.32454 6.0792 5.60097 5.95853 5.75006C5.58409 6.92843 5.52735 8.29914 5.88196 9.48C6.23924 10.6698 7.0081 11.6544 8.28512 12.0843L8.29251 12.0867L8.29972 12.0897L8.3014 12.0904L8.51937 12.1792L8.44382 12.4021L8.16597 13.222L8.0859 13.4583L7.84945 13.3787C7.01415 13.0975 6.11174 13.3456 5.5992 13.9729L5.44734 14.1588L5.25544 14.0146L4.52175 13.4634L4.31356 13.307L4.47832 13.1054C4.84875 12.652 5.33201 12.322 5.86754 12.1221C5.82159 12.0751 5.7765 12.0271 5.7323 11.9783C5.24223 12.1331 4.48092 12.2775 3.7193 12.0212C3.53323 11.9586 3.20928 11.843 2.83236 11.5247C2.45787 11.2084 2.04295 10.7023 1.64938 9.87373L1.54577 9.6556L1.76018 9.5445C2.70751 9.0536 3.52882 8.83899 4.32431 8.98602C4.32177 8.97146 4.31928 8.95688 4.31683 8.94228C4.2347 8.92067 4.1457 8.89475 4.04928 8.8623C3.57303 8.702 2.92659 8.3945 2.49814 7.84818C2.37589 7.69236 2.18223 7.42346 2.06766 6.96311C1.95408 6.50666 1.9221 5.87834 2.09182 5.00353L2.13607 4.77542L2.3668 4.8029C3.21546 4.90396 3.78682 5.09479 4.17324 5.28879C3.85178 4.92358 3.51954 4.4184 3.43696 3.81916Z" stroke="url(#paint1_linear_28995_7399)" stroke-width="0.5"/>
<path d="M36.7345 3.81916L36.7345 3.8191C36.7601 3.63244 36.7989 3.30223 36.6654 2.84656C36.533 2.3947 36.2368 1.83763 35.6249 1.17658L35.4774 1.01722L35.299 1.14096C34.2611 1.86074 33.6074 2.59625 33.4802 3.52127C33.4045 4.07045 33.5456 4.5746 33.7252 4.96599C33.8897 5.32454 34.0922 5.60097 34.2129 5.75006C34.5873 6.92843 34.6441 8.29914 34.2895 9.48C33.9322 10.6698 33.1633 11.6544 31.8863 12.0843L31.8789 12.0867L31.8717 12.0897L31.87 12.0904L31.652 12.1792L31.7276 12.4021L32.0054 13.222L32.0855 13.4583L32.322 13.3787C33.1573 13.0975 34.0597 13.3456 34.5722 13.9729L34.7241 14.1588L34.916 14.0146L35.6497 13.4634L35.8579 13.307L35.6931 13.1054C35.3227 12.652 34.8394 12.322 34.3039 12.1221C34.3498 12.0751 34.3949 12.0271 34.4391 11.9783C34.9292 12.1331 35.6905 12.2775 36.4521 12.0212C36.6382 11.9586 36.9621 11.843 37.3391 11.5247C37.7135 11.2084 38.1285 10.7023 38.522 9.87373L38.6256 9.6556L38.4112 9.5445C37.4639 9.05359 36.6426 8.83899 35.8471 8.98602C35.8496 8.97146 35.8521 8.95688 35.8546 8.94228C35.9367 8.92067 36.0257 8.89475 36.1221 8.8623C36.5984 8.702 37.2448 8.3945 37.6733 7.84818C37.7955 7.69236 37.9892 7.42346 38.1038 6.9631C38.2173 6.50666 38.2493 5.87834 38.0796 5.00353L38.0353 4.77542L37.8046 4.80289C36.956 4.90395 36.3846 5.09479 35.9982 5.28879C36.3196 4.92358 36.6519 4.4184 36.7345 3.81916Z" fill="white"/>
<path d="M36.7345 3.81916L36.7345 3.8191C36.7601 3.63244 36.7989 3.30223 36.6654 2.84656C36.533 2.3947 36.2368 1.83763 35.6249 1.17658L35.4774 1.01722L35.299 1.14096C34.2611 1.86074 33.6074 2.59625 33.4802 3.52127C33.4045 4.07045 33.5456 4.5746 33.7252 4.96599C33.8897 5.32454 34.0922 5.60097 34.2129 5.75006C34.5873 6.92843 34.6441 8.29914 34.2895 9.48C33.9322 10.6698 33.1633 11.6544 31.8863 12.0843L31.8789 12.0867L31.8717 12.0897L31.87 12.0904L31.652 12.1792L31.7276 12.4021L32.0054 13.222L32.0855 13.4583L32.322 13.3787C33.1573 13.0975 34.0597 13.3456 34.5722 13.9729L34.7241 14.1588L34.916 14.0146L35.6497 13.4634L35.8579 13.307L35.6931 13.1054C35.3227 12.652 34.8394 12.322 34.3039 12.1221C34.3498 12.0751 34.3949 12.0271 34.4391 11.9783C34.9292 12.1331 35.6905 12.2775 36.4521 12.0212C36.6382 11.9586 36.9621 11.843 37.3391 11.5247C37.7135 11.2084 38.1285 10.7023 38.522 9.87373L38.6256 9.6556L38.4112 9.5445C37.4639 9.05359 36.6426 8.83899 35.8471 8.98602C35.8496 8.97146 35.8521 8.95688 35.8546 8.94228C35.9367 8.92067 36.0257 8.89475 36.1221 8.8623C36.5984 8.702 37.2448 8.3945 37.6733 7.84818C37.7955 7.69236 37.9892 7.42346 38.1038 6.9631C38.2173 6.50666 38.2493 5.87834 38.0796 5.00353L38.0353 4.77542L37.8046 4.80289C36.956 4.90395 36.3846 5.09479 35.9982 5.28879C36.3196 4.92358 36.6519 4.4184 36.7345 3.81916Z" fill="url(#paint2_linear_28995_7399)"/>
<path d="M36.7345 3.81916L36.7345 3.8191C36.7601 3.63244 36.7989 3.30223 36.6654 2.84656C36.533 2.3947 36.2368 1.83763 35.6249 1.17658L35.4774 1.01722L35.299 1.14096C34.2611 1.86074 33.6074 2.59625 33.4802 3.52127C33.4045 4.07045 33.5456 4.5746 33.7252 4.96599C33.8897 5.32454 34.0922 5.60097 34.2129 5.75006C34.5873 6.92843 34.6441 8.29914 34.2895 9.48C33.9322 10.6698 33.1633 11.6544 31.8863 12.0843L31.8789 12.0867L31.8717 12.0897L31.87 12.0904L31.652 12.1792L31.7276 12.4021L32.0054 13.222L32.0855 13.4583L32.322 13.3787C33.1573 13.0975 34.0597 13.3456 34.5722 13.9729L34.7241 14.1588L34.916 14.0146L35.6497 13.4634L35.8579 13.307L35.6931 13.1054C35.3227 12.652 34.8394 12.322 34.3039 12.1221C34.3498 12.0751 34.3949 12.0271 34.4391 11.9783C34.9292 12.1331 35.6905 12.2775 36.4521 12.0212C36.6382 11.9586 36.9621 11.843 37.3391 11.5247C37.7135 11.2084 38.1285 10.7023 38.522 9.87373L38.6256 9.6556L38.4112 9.5445C37.4639 9.05359 36.6426 8.83899 35.8471 8.98602C35.8496 8.97146 35.8521 8.95688 35.8546 8.94228C35.9367 8.92067 36.0257 8.89475 36.1221 8.8623C36.5984 8.702 37.2448 8.3945 37.6733 7.84818C37.7955 7.69236 37.9892 7.42346 38.1038 6.9631C38.2173 6.50666 38.2493 5.87834 38.0796 5.00353L38.0353 4.77542L37.8046 4.80289C36.956 4.90395 36.3846 5.09479 35.9982 5.28879C36.3196 4.92358 36.6519 4.4184 36.7345 3.81916Z" fill="url(#paint3_linear_28995_7399)"/>
<path d="M36.7345 3.81916L36.7345 3.8191C36.7601 3.63244 36.7989 3.30223 36.6654 2.84656C36.533 2.3947 36.2368 1.83763 35.6249 1.17658L35.4774 1.01722L35.299 1.14096C34.2611 1.86074 33.6074 2.59625 33.4802 3.52127C33.4045 4.07045 33.5456 4.5746 33.7252 4.96599C33.8897 5.32454 34.0922 5.60097 34.2129 5.75006C34.5873 6.92843 34.6441 8.29914 34.2895 9.48C33.9322 10.6698 33.1633 11.6544 31.8863 12.0843L31.8789 12.0867L31.8717 12.0897L31.87 12.0904L31.652 12.1792L31.7276 12.4021L32.0054 13.222L32.0855 13.4583L32.322 13.3787C33.1573 13.0975 34.0597 13.3456 34.5722 13.9729L34.7241 14.1588L34.916 14.0146L35.6497 13.4634L35.8579 13.307L35.6931 13.1054C35.3227 12.652 34.8394 12.322 34.3039 12.1221C34.3498 12.0751 34.3949 12.0271 34.4391 11.9783C34.9292 12.1331 35.6905 12.2775 36.4521 12.0212C36.6382 11.9586 36.9621 11.843 37.3391 11.5247C37.7135 11.2084 38.1285 10.7023 38.522 9.87373L38.6256 9.6556L38.4112 9.5445C37.4639 9.05359 36.6426 8.83899 35.8471 8.98602C35.8496 8.97146 35.8521 8.95688 35.8546 8.94228C35.9367 8.92067 36.0257 8.89475 36.1221 8.8623C36.5984 8.702 37.2448 8.3945 37.6733 7.84818C37.7955 7.69236 37.9892 7.42346 38.1038 6.9631C38.2173 6.50666 38.2493 5.87834 38.0796 5.00353L38.0353 4.77542L37.8046 4.80289C36.956 4.90395 36.3846 5.09479 35.9982 5.28879C36.3196 4.92358 36.6519 4.4184 36.7345 3.81916Z" stroke="#E3B544" stroke-width="0.5"/>
<path d="M36.7345 3.81916L36.7345 3.8191C36.7601 3.63244 36.7989 3.30223 36.6654 2.84656C36.533 2.3947 36.2368 1.83763 35.6249 1.17658L35.4774 1.01722L35.299 1.14096C34.2611 1.86074 33.6074 2.59625 33.4802 3.52127C33.4045 4.07045 33.5456 4.5746 33.7252 4.96599C33.8897 5.32454 34.0922 5.60097 34.2129 5.75006C34.5873 6.92843 34.6441 8.29914 34.2895 9.48C33.9322 10.6698 33.1633 11.6544 31.8863 12.0843L31.8789 12.0867L31.8717 12.0897L31.87 12.0904L31.652 12.1792L31.7276 12.4021L32.0054 13.222L32.0855 13.4583L32.322 13.3787C33.1573 13.0975 34.0597 13.3456 34.5722 13.9729L34.7241 14.1588L34.916 14.0146L35.6497 13.4634L35.8579 13.307L35.6931 13.1054C35.3227 12.652 34.8394 12.322 34.3039 12.1221C34.3498 12.0751 34.3949 12.0271 34.4391 11.9783C34.9292 12.1331 35.6905 12.2775 36.4521 12.0212C36.6382 11.9586 36.9621 11.843 37.3391 11.5247C37.7135 11.2084 38.1285 10.7023 38.522 9.87373L38.6256 9.6556L38.4112 9.5445C37.4639 9.05359 36.6426 8.83899 35.8471 8.98602C35.8496 8.97146 35.8521 8.95688 35.8546 8.94228C35.9367 8.92067 36.0257 8.89475 36.1221 8.8623C36.5984 8.702 37.2448 8.3945 37.6733 7.84818C37.7955 7.69236 37.9892 7.42346 38.1038 6.9631C38.2173 6.50666 38.2493 5.87834 38.0796 5.00353L38.0353 4.77542L37.8046 4.80289C36.956 4.90395 36.3846 5.09479 35.9982 5.28879C36.3196 4.92358 36.6519 4.4184 36.7345 3.81916Z" stroke="url(#paint4_linear_28995_7399)" stroke-width="0.5"/>
<path d="M32.729 4.21716L32.729 4.2171C32.7547 4.03056 32.7935 3.70056 32.66 3.24519C32.5277 2.79362 32.2317 2.23693 31.6202 1.57634L31.4727 1.41699L31.2943 1.54073C30.2571 2.25997 29.6039 2.99497 29.4767 3.91937C29.4011 4.46823 29.5421 4.97207 29.7216 5.3632C29.886 5.72149 30.0883 5.99772 30.2089 6.14671C30.5831 7.3242 30.6398 8.69386 30.2854 9.87381C29.9284 11.0627 29.1602 12.0466 27.8841 12.4761L27.8768 12.4785L27.8695 12.4815L27.8679 12.4822L27.6499 12.571L27.7254 12.7939L28.0031 13.6132L28.0832 13.8495L28.3196 13.7699C29.1542 13.489 30.0559 13.7368 30.568 14.3636L30.7199 14.5495L30.9118 14.4054L31.6449 13.8545L31.8531 13.6981L31.6884 13.4965C31.3183 13.0435 30.8354 12.7138 30.3004 12.514C30.3462 12.4671 30.3911 12.4193 30.4352 12.3705C30.925 12.5252 31.6857 12.6695 32.4468 12.4134C32.6327 12.3508 32.9565 12.2353 33.3331 11.9172C33.7074 11.6011 34.122 11.0954 34.5153 10.2674L34.6189 10.0493L34.4045 9.93815C33.4579 9.44765 32.6372 9.23317 31.8424 9.38001C31.8449 9.36559 31.8473 9.35114 31.8498 9.33668C31.9318 9.31509 32.0207 9.2892 32.117 9.25678C32.593 9.09659 33.239 8.78929 33.6672 8.24329C33.7893 8.08757 33.9828 7.81884 34.0973 7.35884C34.2108 6.9027 34.2428 6.2748 34.0732 5.40061L34.0289 5.1725L33.7982 5.19997C32.9507 5.30089 32.38 5.49139 31.9938 5.68511C32.3149 5.32021 32.6466 4.81562 32.729 4.21716Z" fill="white"/>
<path d="M32.729 4.21716L32.729 4.2171C32.7547 4.03056 32.7935 3.70056 32.66 3.24519C32.5277 2.79362 32.2317 2.23693 31.6202 1.57634L31.4727 1.41699L31.2943 1.54073C30.2571 2.25997 29.6039 2.99497 29.4767 3.91937C29.4011 4.46823 29.5421 4.97207 29.7216 5.3632C29.886 5.72149 30.0883 5.99772 30.2089 6.14671C30.5831 7.3242 30.6398 8.69386 30.2854 9.87381C29.9284 11.0627 29.1602 12.0466 27.8841 12.4761L27.8768 12.4785L27.8695 12.4815L27.8679 12.4822L27.6499 12.571L27.7254 12.7939L28.0031 13.6132L28.0832 13.8495L28.3196 13.7699C29.1542 13.489 30.0559 13.7368 30.568 14.3636L30.7199 14.5495L30.9118 14.4054L31.6449 13.8545L31.8531 13.6981L31.6884 13.4965C31.3183 13.0435 30.8354 12.7138 30.3004 12.514C30.3462 12.4671 30.3911 12.4193 30.4352 12.3705C30.925 12.5252 31.6857 12.6695 32.4468 12.4134C32.6327 12.3508 32.9565 12.2353 33.3331 11.9172C33.7074 11.6011 34.122 11.0954 34.5153 10.2674L34.6189 10.0493L34.4045 9.93815C33.4579 9.44765 32.6372 9.23317 31.8424 9.38001C31.8449 9.36559 31.8473 9.35114 31.8498 9.33668C31.9318 9.31509 32.0207 9.2892 32.117 9.25678C32.593 9.09659 33.239 8.78929 33.6672 8.24329C33.7893 8.08757 33.9828 7.81884 34.0973 7.35884C34.2108 6.9027 34.2428 6.2748 34.0732 5.40061L34.0289 5.1725L33.7982 5.19997C32.9507 5.30089 32.38 5.49139 31.9938 5.68511C32.3149 5.32021 32.6466 4.81562 32.729 4.21716Z" fill="url(#paint5_linear_28995_7399)"/>
<path d="M32.729 4.21716L32.729 4.2171C32.7547 4.03056 32.7935 3.70056 32.66 3.24519C32.5277 2.79362 32.2317 2.23693 31.6202 1.57634L31.4727 1.41699L31.2943 1.54073C30.2571 2.25997 29.6039 2.99497 29.4767 3.91937C29.4011 4.46823 29.5421 4.97207 29.7216 5.3632C29.886 5.72149 30.0883 5.99772 30.2089 6.14671C30.5831 7.3242 30.6398 8.69386 30.2854 9.87381C29.9284 11.0627 29.1602 12.0466 27.8841 12.4761L27.8768 12.4785L27.8695 12.4815L27.8679 12.4822L27.6499 12.571L27.7254 12.7939L28.0031 13.6132L28.0832 13.8495L28.3196 13.7699C29.1542 13.489 30.0559 13.7368 30.568 14.3636L30.7199 14.5495L30.9118 14.4054L31.6449 13.8545L31.8531 13.6981L31.6884 13.4965C31.3183 13.0435 30.8354 12.7138 30.3004 12.514C30.3462 12.4671 30.3911 12.4193 30.4352 12.3705C30.925 12.5252 31.6857 12.6695 32.4468 12.4134C32.6327 12.3508 32.9565 12.2353 33.3331 11.9172C33.7074 11.6011 34.122 11.0954 34.5153 10.2674L34.6189 10.0493L34.4045 9.93815C33.4579 9.44765 32.6372 9.23317 31.8424 9.38001C31.8449 9.36559 31.8473 9.35114 31.8498 9.33668C31.9318 9.31509 32.0207 9.2892 32.117 9.25678C32.593 9.09659 33.239 8.78929 33.6672 8.24329C33.7893 8.08757 33.9828 7.81884 34.0973 7.35884C34.2108 6.9027 34.2428 6.2748 34.0732 5.40061L34.0289 5.1725L33.7982 5.19997C32.9507 5.30089 32.38 5.49139 31.9938 5.68511C32.3149 5.32021 32.6466 4.81562 32.729 4.21716Z" fill="url(#paint6_linear_28995_7399)"/>
<path d="M32.729 4.21716L32.729 4.2171C32.7547 4.03056 32.7935 3.70056 32.66 3.24519C32.5277 2.79362 32.2317 2.23693 31.6202 1.57634L31.4727 1.41699L31.2943 1.54073C30.2571 2.25997 29.6039 2.99497 29.4767 3.91937C29.4011 4.46823 29.5421 4.97207 29.7216 5.3632C29.886 5.72149 30.0883 5.99772 30.2089 6.14671C30.5831 7.3242 30.6398 8.69386 30.2854 9.87381C29.9284 11.0627 29.1602 12.0466 27.8841 12.4761L27.8768 12.4785L27.8695 12.4815L27.8679 12.4822L27.6499 12.571L27.7254 12.7939L28.0031 13.6132L28.0832 13.8495L28.3196 13.7699C29.1542 13.489 30.0559 13.7368 30.568 14.3636L30.7199 14.5495L30.9118 14.4054L31.6449 13.8545L31.8531 13.6981L31.6884 13.4965C31.3183 13.0435 30.8354 12.7138 30.3004 12.514C30.3462 12.4671 30.3911 12.4193 30.4352 12.3705C30.925 12.5252 31.6857 12.6695 32.4468 12.4134C32.6327 12.3508 32.9565 12.2353 33.3331 11.9172C33.7074 11.6011 34.122 11.0954 34.5153 10.2674L34.6189 10.0493L34.4045 9.93815C33.4579 9.44765 32.6372 9.23317 31.8424 9.38001C31.8449 9.36559 31.8473 9.35114 31.8498 9.33668C31.9318 9.31509 32.0207 9.2892 32.117 9.25678C32.593 9.09659 33.239 8.78929 33.6672 8.24329C33.7893 8.08757 33.9828 7.81884 34.0973 7.35884C34.2108 6.9027 34.2428 6.2748 34.0732 5.40061L34.0289 5.1725L33.7982 5.19997C32.9507 5.30089 32.38 5.49139 31.9938 5.68511C32.3149 5.32021 32.6466 4.81562 32.729 4.21716Z" stroke="#E3B544" stroke-width="0.5"/>
<path d="M32.729 4.21716L32.729 4.2171C32.7547 4.03056 32.7935 3.70056 32.66 3.24519C32.5277 2.79362 32.2317 2.23693 31.6202 1.57634L31.4727 1.41699L31.2943 1.54073C30.2571 2.25997 29.6039 2.99497 29.4767 3.91937C29.4011 4.46823 29.5421 4.97207 29.7216 5.3632C29.886 5.72149 30.0883 5.99772 30.2089 6.14671C30.5831 7.3242 30.6398 8.69386 30.2854 9.87381C29.9284 11.0627 29.1602 12.0466 27.8841 12.4761L27.8768 12.4785L27.8695 12.4815L27.8679 12.4822L27.6499 12.571L27.7254 12.7939L28.0031 13.6132L28.0832 13.8495L28.3196 13.7699C29.1542 13.489 30.0559 13.7368 30.568 14.3636L30.7199 14.5495L30.9118 14.4054L31.6449 13.8545L31.8531 13.6981L31.6884 13.4965C31.3183 13.0435 30.8354 12.7138 30.3004 12.514C30.3462 12.4671 30.3911 12.4193 30.4352 12.3705C30.925 12.5252 31.6857 12.6695 32.4468 12.4134C32.6327 12.3508 32.9565 12.2353 33.3331 11.9172C33.7074 11.6011 34.122 11.0954 34.5153 10.2674L34.6189 10.0493L34.4045 9.93815C33.4579 9.44765 32.6372 9.23317 31.8424 9.38001C31.8449 9.36559 31.8473 9.35114 31.8498 9.33668C31.9318 9.31509 32.0207 9.2892 32.117 9.25678C32.593 9.09659 33.239 8.78929 33.6672 8.24329C33.7893 8.08757 33.9828 7.81884 34.0973 7.35884C34.2108 6.9027 34.2428 6.2748 34.0732 5.40061L34.0289 5.1725L33.7982 5.19997C32.9507 5.30089 32.38 5.49139 31.9938 5.68511C32.3149 5.32021 32.6466 4.81562 32.729 4.21716Z" stroke="url(#paint7_linear_28995_7399)" stroke-width="0.5"/>
<g filter="url(#filter0_di_28995_7399)">
<path d="M29.8815 3.25806H32L28.3333 15H14.0333L10 3.25806H12.2112C12.5778 5.96773 15.5112 5.96773 15.8778 3.25806H17.3333C18 6.5 24 6.5 24.6667 3.25806H26.2148C26.5815 5.96773 29.5148 5.96773 29.8815 3.25806Z" fill="url(#paint8_linear_28995_7399)"/>
<path d="M28.0481 5.79031C29.0766 5.79031 29.9757 5.03147 30.2943 3.75806H31.3201L27.9657 14.5H14.3903L10.7004 3.75806H11.7984C12.1169 5.03147 13.016 5.79031 14.0445 5.79031C15.0729 5.79031 15.9721 5.03147 16.2906 3.75806H16.952C17.5251 5.43698 19.3497 6.18951 21 6.18951C22.6503 6.18951 24.4749 5.43698 25.048 3.75806H25.802C26.1206 5.03147 27.0197 5.79031 28.0481 5.79031Z" stroke="url(#paint9_linear_28995_7399)"/>
</g>
<g filter="url(#filter1_di_28995_7399)">
<path d="M23.5998 2.85702L21 1L18.4002 2.85702C17.9688 3.16518 17.9846 3.8115 18.4306 4.0982L18.837 4.35948C20.1546 5.20653 21.8454 5.20653 23.163 4.35948L23.5695 4.0982C24.0155 3.8115 24.0313 3.16518 23.5998 2.85702Z" fill="url(#paint10_linear_28995_7399)"/>
<path d="M18.6182 3.16217L21 1.46084L23.3819 3.16217C23.5976 3.31625 23.5897 3.63941 23.3667 3.78276L22.9603 4.04404C21.7662 4.81168 20.2339 4.81168 19.0398 4.04404L18.6333 3.78276C18.4103 3.63941 18.4024 3.31625 18.6182 3.16217Z" stroke="url(#paint11_linear_28995_7399)" stroke-opacity="0.72" stroke-width="0.75"/>
<path d="M18.6182 3.16217L21 1.46084L23.3819 3.16217C23.5976 3.31625 23.5897 3.63941 23.3667 3.78276L22.9603 4.04404C21.7662 4.81168 20.2339 4.81168 19.0398 4.04404L18.6333 3.78276C18.4103 3.63941 18.4024 3.31625 18.6182 3.16217Z" stroke="url(#paint12_linear_28995_7399)" stroke-width="0.75"/>
</g>
<mask id="path-8-inside-1_28995_7399" fill="white">
<path fill-rule="evenodd" clip-rule="evenodd" d="M36.4624 15H62.4448C65.7585 15 68.4448 12.3137 68.4448 9C68.4448 5.68629 65.7585 3 62.4448 3H41.2726C42.0143 4.88122 40.8392 7.49741 39.8548 8.5C41.1077 8.5 41.8548 8.90066 41.8548 9.5C41.8548 13.0961 37.5673 14.3798 36.8428 14.5843C36.6578 14.6365 36.5277 14.7816 36.4624 15Z"/>
</mask>
<path fill-rule="evenodd" clip-rule="evenodd" d="M36.4624 15H62.4448C65.7585 15 68.4448 12.3137 68.4448 9C68.4448 5.68629 65.7585 3 62.4448 3H41.2726C42.0143 4.88122 40.8392 7.49741 39.8548 8.5C41.1077 8.5 41.8548 8.90066 41.8548 9.5C41.8548 13.0961 37.5673 14.3798 36.8428 14.5843C36.6578 14.6365 36.5277 14.7816 36.4624 15Z" fill="url(#paint13_linear_28995_7399)"/>
<path d="M36.4624 15L35.5043 14.7138L35.1201 16H36.4624V15ZM41.2726 3V2H39.8035L40.3423 3.36677L41.2726 3ZM39.8548 8.5L39.1412 7.79937L37.4714 9.5H39.8548V8.5ZM36.8428 14.5843L37.1143 15.5467H37.1143L36.8428 14.5843ZM62.4448 14H36.4624V16H62.4448V14ZM67.4448 9C67.4448 11.7614 65.2062 14 62.4448 14V16C66.3108 16 69.4448 12.866 69.4448 9H67.4448ZM62.4448 4C65.2062 4 67.4448 6.23858 67.4448 9H69.4448C69.4448 5.13401 66.3108 2 62.4448 2V4ZM41.2726 4H62.4448V2H41.2726V4ZM40.3423 3.36677C40.5944 4.00613 40.5473 4.87088 40.2584 5.77516C39.9711 6.67436 39.5016 7.4324 39.1412 7.79937L40.5683 9.20063C41.1924 8.565 41.8026 7.51366 42.1636 6.38381C42.5229 5.25905 42.6925 3.87509 42.2029 2.63323L40.3423 3.36677ZM39.8548 9.5C40.3948 9.5 40.7199 9.58939 40.8704 9.66612C40.94 9.70164 40.9372 9.71646 40.9129 9.68337C40.8812 9.64037 40.8548 9.57171 40.8548 9.5H42.8548C42.8548 8.70155 42.3315 8.16615 41.7789 7.88437C41.2426 7.61094 40.5677 7.5 39.8548 7.5V9.5ZM40.8548 9.5C40.8548 10.8368 40.0756 11.7903 39.0554 12.4889C38.0306 13.1907 36.9051 13.5276 36.5712 13.6218L37.1143 15.5467C37.505 15.4365 38.8855 15.0293 40.1855 14.1391C41.4901 13.2457 42.8548 11.7592 42.8548 9.5H40.8548ZM36.5712 13.6218C35.9806 13.7885 35.6425 14.251 35.5043 14.7138L37.4206 15.2862C37.4189 15.2918 37.4029 15.3417 37.3473 15.4029C37.287 15.4691 37.2044 15.5213 37.1143 15.5467L36.5712 13.6218Z" fill="url(#paint14_linear_28995_7399)" mask="url(#path-8-inside-1_28995_7399)"/>
<g filter="url(#filter2_d_28995_7399)">
<path d="M45.9966 13L46.9312 8.7085C46.9598 8.57243 46.9956 8.42204 47.0386 8.25732C47.0851 8.08903 47.1353 7.92432 47.189 7.76318C47.2427 7.59847 47.2928 7.45524 47.3394 7.3335C47.2355 7.4266 47.1138 7.52865 46.9741 7.63965C46.8381 7.74707 46.7253 7.82943 46.6358 7.88672L45.5454 8.55811L44.7344 7.20459L48.0645 5.14746H49.7349L48.086 13H45.9966ZM52.8823 13L53.2046 11.48H50.2559L50.5298 10.105L54.6226 5.14746H56.5562L55.5571 9.89551H56.3574L56.0298 11.48H55.2241L54.9072 13H52.8823ZM52.4097 9.89551H53.5322L53.7954 8.85352C53.8312 8.72819 53.8706 8.58675 53.9136 8.4292C53.9566 8.27165 53.9977 8.12663 54.0371 7.99414C54.0765 7.85807 54.1034 7.76676 54.1177 7.72021H54.0694C54.0049 7.84196 53.9136 7.99593 53.7954 8.18213C53.6808 8.36475 53.568 8.51872 53.457 8.64404L52.4097 9.89551ZM59.0215 13.1074C58.7565 13.1074 58.4772 13.0913 58.1836 13.0591C57.8936 13.0269 57.625 12.9785 57.3779 12.9141C57.1309 12.846 56.9375 12.7619 56.7979 12.6616V10.9214C57.0628 11.0754 57.3779 11.2007 57.7432 11.2974C58.112 11.3905 58.4504 11.437 58.7583 11.437C58.9946 11.437 59.2041 11.4173 59.3867 11.3779C59.5729 11.3385 59.7287 11.2777 59.854 11.1953C59.9829 11.1094 60.0796 11.002 60.1441 10.873C60.2121 10.7441 60.2461 10.5884 60.2461 10.4058C60.2461 10.1587 60.162 9.94564 59.9937 9.7666C59.829 9.58398 59.5783 9.49268 59.2417 9.49268C59.0555 9.49268 58.8604 9.50879 58.6563 9.54102C58.4557 9.57324 58.2875 9.61442 58.1514 9.66455L57.4961 9.17041L58.6509 5.14746H63.0176L62.6524 6.88232H60.1226L59.8057 7.87598C59.8988 7.86523 59.9776 7.85986 60.042 7.85986C60.11 7.85628 60.1655 7.85449 60.2085 7.85449C60.6131 7.85449 60.9802 7.94401 61.3096 8.12305C61.639 8.30208 61.9004 8.56527 62.0938 8.9126C62.2907 9.25635 62.3892 9.68066 62.3892 10.1855C62.3892 10.6797 62.3104 11.1112 62.1528 11.48C61.9953 11.8452 61.7679 12.1478 61.4707 12.3877C61.1771 12.6276 60.8226 12.8084 60.4072 12.9302C59.9955 13.0483 59.5335 13.1074 59.0215 13.1074Z" fill="white"/>
<path d="M45.9966 13L46.9312 8.7085C46.9598 8.57243 46.9956 8.42204 47.0386 8.25732C47.0851 8.08903 47.1353 7.92432 47.189 7.76318C47.2427 7.59847 47.2928 7.45524 47.3394 7.3335C47.2355 7.4266 47.1138 7.52865 46.9741 7.63965C46.8381 7.74707 46.7253 7.82943 46.6358 7.88672L45.5454 8.55811L44.7344 7.20459L48.0645 5.14746H49.7349L48.086 13H45.9966ZM52.8823 13L53.2046 11.48H50.2559L50.5298 10.105L54.6226 5.14746H56.5562L55.5571 9.89551H56.3574L56.0298 11.48H55.2241L54.9072 13H52.8823ZM52.4097 9.89551H53.5322L53.7954 8.85352C53.8312 8.72819 53.8706 8.58675 53.9136 8.4292C53.9566 8.27165 53.9977 8.12663 54.0371 7.99414C54.0765 7.85807 54.1034 7.76676 54.1177 7.72021H54.0694C54.0049 7.84196 53.9136 7.99593 53.7954 8.18213C53.6808 8.36475 53.568 8.51872 53.457 8.64404L52.4097 9.89551ZM59.0215 13.1074C58.7565 13.1074 58.4772 13.0913 58.1836 13.0591C57.8936 13.0269 57.625 12.9785 57.3779 12.9141C57.1309 12.846 56.9375 12.7619 56.7979 12.6616V10.9214C57.0628 11.0754 57.3779 11.2007 57.7432 11.2974C58.112 11.3905 58.4504 11.437 58.7583 11.437C58.9946 11.437 59.2041 11.4173 59.3867 11.3779C59.5729 11.3385 59.7287 11.2777 59.854 11.1953C59.9829 11.1094 60.0796 11.002 60.1441 10.873C60.2121 10.7441 60.2461 10.5884 60.2461 10.4058C60.2461 10.1587 60.162 9.94564 59.9937 9.7666C59.829 9.58398 59.5783 9.49268 59.2417 9.49268C59.0555 9.49268 58.8604 9.50879 58.6563 9.54102C58.4557 9.57324 58.2875 9.61442 58.1514 9.66455L57.4961 9.17041L58.6509 5.14746H63.0176L62.6524 6.88232H60.1226L59.8057 7.87598C59.8988 7.86523 59.9776 7.85986 60.042 7.85986C60.11 7.85628 60.1655 7.85449 60.2085 7.85449C60.6131 7.85449 60.9802 7.94401 61.3096 8.12305C61.639 8.30208 61.9004 8.56527 62.0938 8.9126C62.2907 9.25635 62.3892 9.68066 62.3892 10.1855C62.3892 10.6797 62.3104 11.1112 62.1528 11.48C61.9953 11.8452 61.7679 12.1478 61.4707 12.3877C61.1771 12.6276 60.8226 12.8084 60.4072 12.9302C59.9955 13.0483 59.5335 13.1074 59.0215 13.1074Z" fill="url(#paint15_linear_28995_7399)"/>
<path d="M45.9966 13L45.508 12.8936L45.376 13.5H45.9966V13ZM46.9312 8.7085L47.4197 8.81489L47.4204 8.8115L46.9312 8.7085ZM47.0386 8.25732L46.5566 8.12402L46.5548 8.13111L47.0386 8.25732ZM47.189 7.76318L47.6633 7.9213L47.6643 7.91819L47.189 7.76318ZM47.3394 7.3335L47.8064 7.51206L47.0056 6.96121L47.3394 7.3335ZM46.9741 7.63965L47.284 8.03209L47.2853 8.03106L46.9741 7.63965ZM46.6358 7.88672L46.898 8.31254L46.9053 8.30785L46.6358 7.88672ZM45.5454 8.55811L45.1165 8.8151L45.3767 9.24922L45.8076 8.98386L45.5454 8.55811ZM44.7344 7.20459L44.4716 6.77921L44.0519 7.03845L44.3055 7.46159L44.7344 7.20459ZM48.0645 5.14746V4.64746H47.9225L47.8017 4.72208L48.0645 5.14746ZM49.7349 5.14746L50.2242 5.25021L50.3508 4.64746H49.7349V5.14746ZM48.086 13V13.5H48.4919L48.5753 13.1028L48.086 13ZM46.4851 13.1064L47.4197 8.81489L46.4426 8.6021L45.508 12.8936L46.4851 13.1064ZM47.4204 8.8115C47.4471 8.6847 47.481 8.54219 47.5224 8.38354L46.5548 8.13111C46.5102 8.30189 46.4725 8.46016 46.4419 8.60549L47.4204 8.8115ZM47.5205 8.39062C47.5648 8.23043 47.6124 8.074 47.6633 7.9213L46.7146 7.60507C46.6581 7.77463 46.6055 7.94763 46.5567 8.12403L47.5205 8.39062ZM47.6643 7.91819C47.7163 7.759 47.7636 7.62398 47.8064 7.51206L46.8723 7.15493C46.822 7.2865 46.7691 7.43794 46.7136 7.60817L47.6643 7.91819ZM47.0056 6.96121C46.9108 7.04619 46.7969 7.14178 46.663 7.24824L47.2853 8.03106C47.4306 7.91551 47.5602 7.807 47.6731 7.70578L47.0056 6.96121ZM46.6643 7.24721C46.5342 7.34991 46.436 7.42095 46.3662 7.46558L46.9053 8.30785C47.0146 8.23791 47.1419 8.14423 47.284 8.03209L46.6643 7.24721ZM46.3736 7.46096L45.2833 8.13235L45.8076 8.98386L46.8979 8.31248L46.3736 7.46096ZM45.9743 8.30111L45.1633 6.94759L44.3055 7.46159L45.1165 8.8151L45.9743 8.30111ZM44.9972 7.62997L48.3272 5.57284L47.8017 4.72208L44.4716 6.77921L44.9972 7.62997ZM48.0645 5.64746H49.7349V4.64746H48.0645V5.64746ZM49.2456 5.04471L47.5966 12.8972L48.5753 13.1028L50.2242 5.25021L49.2456 5.04471ZM48.086 12.5H45.9966V13.5H48.086V12.5ZM52.8823 13L52.3932 12.8963L52.2652 13.5H52.8823V13ZM53.2046 11.48L53.6937 11.5837L53.8217 10.98H53.2046V11.48ZM50.2559 11.48L49.7655 11.3823L49.6464 11.98H50.2559V11.48ZM50.5298 10.105L50.1442 9.78666L50.064 9.88378L50.0394 10.0073L50.5298 10.105ZM54.6226 5.14746V4.64746H54.387L54.237 4.82914L54.6226 5.14746ZM56.5562 5.14746L57.0455 5.25041L57.1723 4.64746H56.5562V5.14746ZM55.5571 9.89551L55.0679 9.79256L54.941 10.3955H55.5571V9.89551ZM56.3574 9.89551L56.8471 9.99676L56.9714 9.39551H56.3574V9.89551ZM56.0298 11.48V11.98H56.437L56.5194 11.5812L56.0298 11.48ZM55.2241 11.48V10.98H54.8176L54.7347 11.3779L55.2241 11.48ZM54.9072 13V13.5H55.3138L55.3967 13.102L54.9072 13ZM52.4097 9.89551L52.0262 9.57461L51.3392 10.3955H52.4097V9.89551ZM53.5322 9.89551V10.3955H53.9217L54.017 10.018L53.5322 9.89551ZM53.7954 8.85352L53.3147 8.71616L53.3125 8.72358L53.3106 8.73107L53.7954 8.85352ZM54.0371 7.99414L54.5164 8.13663L54.5174 8.13317L54.0371 7.99414ZM54.1177 7.72021L54.5956 7.86726L54.7947 7.22021H54.1177V7.72021ZM54.0694 7.72021V7.22021H53.7683L53.6275 7.48627L54.0694 7.72021ZM53.7954 8.18213L53.3733 7.91421L53.3719 7.91638L53.7954 8.18213ZM53.457 8.64404L53.0826 8.3124L53.0736 8.32314L53.457 8.64404ZM53.3715 13.1037L53.6937 11.5837L52.7155 11.3763L52.3932 12.8963L53.3715 13.1037ZM53.2046 10.98H50.2559V11.98H53.2046V10.98ZM50.7462 11.5777L51.0202 10.2027L50.0394 10.0073L49.7655 11.3823L50.7462 11.5777ZM50.9154 10.4233L55.0082 5.46578L54.237 4.82914L50.1442 9.78666L50.9154 10.4233ZM54.6226 5.64746H56.5562V4.64746H54.6226V5.64746ZM56.0669 5.04451L55.0679 9.79256L56.0464 9.99846L57.0455 5.25041L56.0669 5.04451ZM55.5571 10.3955H56.3574V9.39551H55.5571V10.3955ZM55.8678 9.79426L55.5402 11.3787L56.5194 11.5812L56.8471 9.99676L55.8678 9.79426ZM56.0298 10.98H55.2241V11.98H56.0298V10.98ZM54.7347 11.3779L54.4178 12.898L55.3967 13.102L55.7136 11.582L54.7347 11.3779ZM54.9072 12.5H52.8823V13.5H54.9072V12.5ZM52.4097 10.3955H53.5322V9.39551H52.4097V10.3955ZM54.017 10.018L54.2802 8.97596L53.3106 8.73107L53.0475 9.77306L54.017 10.018ZM54.2762 8.99088C54.3127 8.86321 54.3526 8.71979 54.396 8.56076L53.4312 8.29764C53.3886 8.45371 53.3498 8.59317 53.3147 8.71616L54.2762 8.99088ZM54.396 8.56076C54.4381 8.40623 54.4783 8.2649 54.5164 8.13663L53.5579 7.85166C53.5172 7.98835 53.475 8.13707 53.4312 8.29764L54.396 8.56076ZM54.5174 8.13317C54.557 7.99653 54.5827 7.90918 54.5956 7.86726L53.6398 7.57317C53.6241 7.62435 53.5961 7.71962 53.5568 7.85511L54.5174 8.13317ZM54.1177 7.22021H54.0694V8.22021H54.1177V7.22021ZM53.6275 7.48627C53.5716 7.5917 53.488 7.73337 53.3733 7.91422L54.2176 8.45004C54.3392 8.25849 54.4382 8.09222 54.5112 7.95416L53.6275 7.48627ZM53.3719 7.91638C53.268 8.08201 53.1713 8.2126 53.0828 8.31253L53.8313 8.97556C53.9648 8.82483 54.0937 8.64749 54.219 8.44787L53.3719 7.91638ZM53.0736 8.32314L52.0262 9.57461L52.7931 10.2164L53.8405 8.96494L53.0736 8.32314ZM58.1836 13.0591L58.1284 13.556L58.1291 13.5561L58.1836 13.0591ZM57.3779 12.9141L57.2452 13.3962L57.2517 13.3979L57.3779 12.9141ZM56.7979 12.6616H56.2979V12.9182L56.5063 13.0678L56.7979 12.6616ZM56.7979 10.9214L57.0491 10.4891L56.2979 10.0526V10.9214H56.7979ZM57.7432 11.2974L57.6152 11.7807L57.6208 11.7822L57.7432 11.2974ZM59.3867 11.3779L59.2833 10.8888L59.2813 10.8892L59.3867 11.3779ZM59.854 11.1953L60.1286 11.6132L60.1314 11.6113L59.854 11.1953ZM60.1441 10.873L59.7018 10.6396L59.6968 10.6494L60.1441 10.873ZM59.9937 9.7666L59.6223 10.1016L59.6294 10.1091L59.9937 9.7666ZM58.6563 9.54102L58.5783 9.04713L58.5769 9.04735L58.6563 9.54102ZM58.1514 9.66455L57.8503 10.0638L58.0682 10.2281L58.3242 10.1337L58.1514 9.66455ZM57.4961 9.17041L57.0155 9.03246L56.9207 9.36273L57.1951 9.56962L57.4961 9.17041ZM58.6509 5.14746V4.64746H58.2742L58.1703 5.00951L58.6509 5.14746ZM63.0176 5.14746L63.5069 5.25047L63.6338 4.64746H63.0176V5.14746ZM62.6524 6.88232V7.38232H63.0581L63.1416 6.98533L62.6524 6.88232ZM60.1226 6.88232V6.38232H59.7572L59.6462 6.7304L60.1226 6.88232ZM59.8057 7.87598L59.3293 7.72406L59.0942 8.46139L59.863 8.37268L59.8057 7.87598ZM60.042 7.85986V8.35986H60.0552L60.0683 8.35917L60.042 7.85986ZM62.0938 8.9126L61.6569 9.15582L61.6599 9.16115L62.0938 8.9126ZM62.1528 11.48L62.612 11.678L62.6126 11.6764L62.1528 11.48ZM61.4707 12.3877L61.1567 11.9986L61.1544 12.0005L61.4707 12.3877ZM60.4072 12.9302L60.5452 13.4108L60.5479 13.41L60.4072 12.9302ZM59.0215 12.6074C58.7767 12.6074 58.5157 12.5925 58.2382 12.5621L58.1291 13.5561C58.4388 13.5901 58.7364 13.6074 59.0215 13.6074V12.6074ZM58.2388 12.5621C57.9694 12.5322 57.7249 12.4878 57.5042 12.4303L57.2517 13.3979C57.5251 13.4692 57.8177 13.5215 58.1284 13.556L58.2388 12.5621ZM57.5107 12.432C57.2954 12.3727 57.1636 12.3087 57.0895 12.2555L56.5063 13.0678C56.7114 13.2151 56.9664 13.3193 57.2452 13.3961L57.5107 12.432ZM57.2979 12.6616V10.9214H56.2979V12.6616H57.2979ZM56.5467 11.3537C56.858 11.5346 57.2164 11.6751 57.6152 11.7807L57.8711 10.814C57.5395 10.7262 57.2677 10.6161 57.0491 10.4891L56.5467 11.3537ZM57.6208 11.7822C58.0207 11.8831 58.4008 11.937 58.7583 11.937V10.937C58.5 10.937 58.2033 10.8978 57.8656 10.8126L57.6208 11.7822ZM58.7583 11.937C59.0212 11.937 59.2672 11.9152 59.4922 11.8667L59.2813 10.8892C59.141 10.9194 58.9681 10.937 58.7583 10.937V11.937ZM59.4902 11.8671C59.7217 11.8181 59.9393 11.7376 60.1286 11.6132L59.5794 10.7775C59.5181 10.8177 59.4242 10.8589 59.2833 10.8888L59.4902 11.8671ZM60.1314 11.6113C60.3271 11.4809 60.485 11.3092 60.5913 11.0967L59.6968 10.6494C59.6742 10.6947 59.6388 10.7379 59.5767 10.7793L60.1314 11.6113ZM60.5863 11.1064C60.7007 10.8897 60.7461 10.6496 60.7461 10.4058H59.7461C59.7461 10.5272 59.7235 10.5986 59.7019 10.6397L60.5863 11.1064ZM60.7461 10.4058C60.7461 10.0322 60.614 9.69648 60.358 9.42415L59.6294 10.1091C59.71 10.1948 59.7461 10.2852 59.7461 10.4058H60.7461ZM60.365 9.43172C60.0743 9.10948 59.6656 8.99268 59.2417 8.99268V9.99268C59.491 9.99268 59.5836 10.0585 59.6224 10.1015L60.365 9.43172ZM59.2417 8.99268C59.0267 8.99268 58.8054 9.01127 58.5783 9.04713L58.7342 10.0349C58.9153 10.0063 59.0843 9.99268 59.2417 9.99268V8.99268ZM58.5769 9.04735C58.3561 9.08284 58.1542 9.13064 57.9785 9.19538L58.3242 10.1337C58.4207 10.0982 58.5554 10.0636 58.7356 10.0347L58.5769 9.04735ZM58.4524 9.26534L57.7972 8.7712L57.1951 9.56962L57.8503 10.0638L58.4524 9.26534ZM57.9767 9.30836L59.1315 5.28541L58.1703 5.00951L57.0155 9.03246L57.9767 9.30836ZM58.6509 5.64746H63.0176V4.64746H58.6509V5.64746ZM62.5283 5.04446L62.1631 6.77932L63.1416 6.98533L63.5069 5.25047L62.5283 5.04446ZM62.6524 6.38232H60.1226V7.38232H62.6524V6.38232ZM59.6462 6.7304L59.3293 7.72406L60.282 8.0279L60.5989 7.03424L59.6462 6.7304ZM59.863 8.37268C59.9448 8.36324 60.0032 8.35986 60.042 8.35986V7.35986C59.952 7.35986 59.8528 7.36722 59.7484 7.37927L59.863 8.37268ZM60.0683 8.35917C60.132 8.35582 60.1778 8.35449 60.2085 8.35449V7.35449C60.1533 7.35449 60.0881 7.35675 60.0157 7.36055L60.0683 8.35917ZM60.2085 8.35449C60.5365 8.35449 60.8204 8.42627 61.0708 8.56236L61.5483 7.68373C61.1399 7.46175 60.6898 7.35449 60.2085 7.35449V8.35449ZM61.0708 8.56236C61.3119 8.69336 61.5067 8.88608 61.6569 9.1558L62.5306 8.66939C62.2941 8.24446 61.9662 7.91081 61.5483 7.68373L61.0708 8.56236ZM61.6599 9.16115C61.8032 9.41118 61.8892 9.74439 61.8892 10.1855H62.8892C62.8892 9.61694 62.7782 9.10151 62.5276 8.66404L61.6599 9.16115ZM61.8892 10.1855C61.8892 10.6274 61.8187 10.9895 61.693 11.2836L62.6126 11.6764C62.8021 11.2329 62.8892 10.732 62.8892 10.1855H61.8892ZM61.6937 11.2819C61.5669 11.5759 61.3881 11.8118 61.1567 11.9986L61.7848 12.7768C62.1478 12.4837 62.4236 12.1146 62.612 11.678L61.6937 11.2819ZM61.1544 12.0005C60.9194 12.1925 60.6268 12.3448 60.2666 12.4504L60.5479 13.41C61.0184 13.2721 61.4348 13.0627 61.7871 12.7749L61.1544 12.0005ZM60.2693 12.4496C59.9101 12.5526 59.4957 12.6074 59.0215 12.6074V13.6074C59.5714 13.6074 60.0808 13.544 60.5452 13.4108L60.2693 12.4496Z" fill="black" fill-opacity="0.2"/>
</g>
<path d="M7.54457 4.21716L7.54456 4.2171C7.5189 4.03056 7.48013 3.70056 7.61358 3.24519C7.74591 2.79362 8.04191 2.23693 8.65335 1.57634L8.80085 1.41699L8.97928 1.54073C10.0164 2.25997 10.6697 2.99497 10.7968 3.91937C10.8724 4.46823 10.7315 4.97207 10.552 5.3632C10.3876 5.72149 10.1852 5.99772 10.0646 6.14671C9.6905 7.3242 9.63381 8.69386 9.98814 9.87381C10.3452 11.0627 11.1134 12.0466 12.3895 12.4761L12.3968 12.4785L12.4041 12.4815L12.4057 12.4822L12.6237 12.571L12.5481 12.7939L12.2705 13.6132L12.1904 13.8495L11.954 13.7699C11.1193 13.489 10.2177 13.7368 9.70556 14.3636L9.5537 14.5495L9.3618 14.4054L8.62864 13.8545L8.42045 13.6981L8.58521 13.4965C8.95533 13.0435 9.43817 12.7138 9.97324 12.514C9.92741 12.4671 9.88244 12.4193 9.83836 12.3705C9.34863 12.5252 8.58789 12.6695 7.82683 12.4134C7.64088 12.3508 7.31714 12.2353 6.94047 11.9172C6.56623 11.6011 6.1516 11.0954 5.7583 10.2674L5.65469 10.0493L5.8691 9.93815C6.81566 9.44765 7.63635 9.23317 8.43123 9.38001C8.42871 9.36559 8.42625 9.35114 8.42382 9.33668C8.34177 9.31509 8.25288 9.2892 8.15657 9.25678C7.68064 9.09659 7.0346 8.78929 6.60643 8.24329C6.48426 8.08757 6.29075 7.81884 6.17627 7.35884C6.06276 6.9027 6.03081 6.2748 6.20041 5.40061L6.24466 5.1725L6.47539 5.19997C7.32284 5.30089 7.89359 5.49139 8.27974 5.68511C7.95869 5.32021 7.62704 4.81562 7.54457 4.21716Z" fill="white"/>
<path d="M7.54457 4.21716L7.54456 4.2171C7.5189 4.03056 7.48013 3.70056 7.61358 3.24519C7.74591 2.79362 8.04191 2.23693 8.65335 1.57634L8.80085 1.41699L8.97928 1.54073C10.0164 2.25997 10.6697 2.99497 10.7968 3.91937C10.8724 4.46823 10.7315 4.97207 10.552 5.3632C10.3876 5.72149 10.1852 5.99772 10.0646 6.14671C9.6905 7.3242 9.63381 8.69386 9.98814 9.87381C10.3452 11.0627 11.1134 12.0466 12.3895 12.4761L12.3968 12.4785L12.4041 12.4815L12.4057 12.4822L12.6237 12.571L12.5481 12.7939L12.2705 13.6132L12.1904 13.8495L11.954 13.7699C11.1193 13.489 10.2177 13.7368 9.70556 14.3636L9.5537 14.5495L9.3618 14.4054L8.62864 13.8545L8.42045 13.6981L8.58521 13.4965C8.95533 13.0435 9.43817 12.7138 9.97324 12.514C9.92741 12.4671 9.88244 12.4193 9.83836 12.3705C9.34863 12.5252 8.58789 12.6695 7.82683 12.4134C7.64088 12.3508 7.31714 12.2353 6.94047 11.9172C6.56623 11.6011 6.1516 11.0954 5.7583 10.2674L5.65469 10.0493L5.8691 9.93815C6.81566 9.44765 7.63635 9.23317 8.43123 9.38001C8.42871 9.36559 8.42625 9.35114 8.42382 9.33668C8.34177 9.31509 8.25288 9.2892 8.15657 9.25678C7.68064 9.09659 7.0346 8.78929 6.60643 8.24329C6.48426 8.08757 6.29075 7.81884 6.17627 7.35884C6.06276 6.9027 6.03081 6.2748 6.20041 5.40061L6.24466 5.1725L6.47539 5.19997C7.32284 5.30089 7.89359 5.49139 8.27974 5.68511C7.95869 5.32021 7.62704 4.81562 7.54457 4.21716Z" fill="url(#paint16_linear_28995_7399)"/>
<path d="M7.54457 4.21716L7.54456 4.2171C7.5189 4.03056 7.48013 3.70056 7.61358 3.24519C7.74591 2.79362 8.04191 2.23693 8.65335 1.57634L8.80085 1.41699L8.97928 1.54073C10.0164 2.25997 10.6697 2.99497 10.7968 3.91937C10.8724 4.46823 10.7315 4.97207 10.552 5.3632C10.3876 5.72149 10.1852 5.99772 10.0646 6.14671C9.6905 7.3242 9.63381 8.69386 9.98814 9.87381C10.3452 11.0627 11.1134 12.0466 12.3895 12.4761L12.3968 12.4785L12.4041 12.4815L12.4057 12.4822L12.6237 12.571L12.5481 12.7939L12.2705 13.6132L12.1904 13.8495L11.954 13.7699C11.1193 13.489 10.2177 13.7368 9.70556 14.3636L9.5537 14.5495L9.3618 14.4054L8.62864 13.8545L8.42045 13.6981L8.58521 13.4965C8.95533 13.0435 9.43817 12.7138 9.97324 12.514C9.92741 12.4671 9.88244 12.4193 9.83836 12.3705C9.34863 12.5252 8.58789 12.6695 7.82683 12.4134C7.64088 12.3508 7.31714 12.2353 6.94047 11.9172C6.56623 11.6011 6.1516 11.0954 5.7583 10.2674L5.65469 10.0493L5.8691 9.93815C6.81566 9.44765 7.63635 9.23317 8.43123 9.38001C8.42871 9.36559 8.42625 9.35114 8.42382 9.33668C8.34177 9.31509 8.25288 9.2892 8.15657 9.25678C7.68064 9.09659 7.0346 8.78929 6.60643 8.24329C6.48426 8.08757 6.29075 7.81884 6.17627 7.35884C6.06276 6.9027 6.03081 6.2748 6.20041 5.40061L6.24466 5.1725L6.47539 5.19997C7.32284 5.30089 7.89359 5.49139 8.27974 5.68511C7.95869 5.32021 7.62704 4.81562 7.54457 4.21716Z" fill="url(#paint17_linear_28995_7399)"/>
<path d="M7.54457 4.21716L7.54456 4.2171C7.5189 4.03056 7.48013 3.70056 7.61358 3.24519C7.74591 2.79362 8.04191 2.23693 8.65335 1.57634L8.80085 1.41699L8.97928 1.54073C10.0164 2.25997 10.6697 2.99497 10.7968 3.91937C10.8724 4.46823 10.7315 4.97207 10.552 5.3632C10.3876 5.72149 10.1852 5.99772 10.0646 6.14671C9.6905 7.3242 9.63381 8.69386 9.98814 9.87381C10.3452 11.0627 11.1134 12.0466 12.3895 12.4761L12.3968 12.4785L12.4041 12.4815L12.4057 12.4822L12.6237 12.571L12.5481 12.7939L12.2705 13.6132L12.1904 13.8495L11.954 13.7699C11.1193 13.489 10.2177 13.7368 9.70556 14.3636L9.5537 14.5495L9.3618 14.4054L8.62864 13.8545L8.42045 13.6981L8.58521 13.4965C8.95533 13.0435 9.43817 12.7138 9.97324 12.514C9.92741 12.4671 9.88244 12.4193 9.83836 12.3705C9.34863 12.5252 8.58789 12.6695 7.82683 12.4134C7.64088 12.3508 7.31714 12.2353 6.94047 11.9172C6.56623 11.6011 6.1516 11.0954 5.7583 10.2674L5.65469 10.0493L5.8691 9.93815C6.81566 9.44765 7.63635 9.23317 8.43123 9.38001C8.42871 9.36559 8.42625 9.35114 8.42382 9.33668C8.34177 9.31509 8.25288 9.2892 8.15657 9.25678C7.68064 9.09659 7.0346 8.78929 6.60643 8.24329C6.48426 8.08757 6.29075 7.81884 6.17627 7.35884C6.06276 6.9027 6.03081 6.2748 6.20041 5.40061L6.24466 5.1725L6.47539 5.19997C7.32284 5.30089 7.89359 5.49139 8.27974 5.68511C7.95869 5.32021 7.62704 4.81562 7.54457 4.21716Z" stroke="#E3B544" stroke-width="0.5"/>
<path d="M7.54457 4.21716L7.54456 4.2171C7.5189 4.03056 7.48013 3.70056 7.61358 3.24519C7.74591 2.79362 8.04191 2.23693 8.65335 1.57634L8.80085 1.41699L8.97928 1.54073C10.0164 2.25997 10.6697 2.99497 10.7968 3.91937C10.8724 4.46823 10.7315 4.97207 10.552 5.3632C10.3876 5.72149 10.1852 5.99772 10.0646 6.14671C9.6905 7.3242 9.63381 8.69386 9.98814 9.87381C10.3452 11.0627 11.1134 12.0466 12.3895 12.4761L12.3968 12.4785L12.4041 12.4815L12.4057 12.4822L12.6237 12.571L12.5481 12.7939L12.2705 13.6132L12.1904 13.8495L11.954 13.7699C11.1193 13.489 10.2177 13.7368 9.70556 14.3636L9.5537 14.5495L9.3618 14.4054L8.62864 13.8545L8.42045 13.6981L8.58521 13.4965C8.95533 13.0435 9.43817 12.7138 9.97324 12.514C9.92741 12.4671 9.88244 12.4193 9.83836 12.3705C9.34863 12.5252 8.58789 12.6695 7.82683 12.4134C7.64088 12.3508 7.31714 12.2353 6.94047 11.9172C6.56623 11.6011 6.1516 11.0954 5.7583 10.2674L5.65469 10.0493L5.8691 9.93815C6.81566 9.44765 7.63635 9.23317 8.43123 9.38001C8.42871 9.36559 8.42625 9.35114 8.42382 9.33668C8.34177 9.31509 8.25288 9.2892 8.15657 9.25678C7.68064 9.09659 7.0346 8.78929 6.60643 8.24329C6.48426 8.08757 6.29075 7.81884 6.17627 7.35884C6.06276 6.9027 6.03081 6.2748 6.20041 5.40061L6.24466 5.1725L6.47539 5.19997C7.32284 5.30089 7.89359 5.49139 8.27974 5.68511C7.95869 5.32021 7.62704 4.81562 7.54457 4.21716Z" stroke="url(#paint18_linear_28995_7399)" stroke-width="0.5"/>
<defs>
<filter id="filter0_di_28995_7399" x="9.80002" y="3.05806" width="22.8" height="12.5419" filterUnits="userSpaceOnUse" color-interpolation-filters="sRGB">
<feFlood flood-opacity="0" result="BackgroundImageFix"/>
<feColorMatrix in="SourceAlpha" type="matrix" values="0 0 0 0 0 0 0 0 0 0 0 0 0 0 0 0 0 0 127 0" result="hardAlpha"/>
<feOffset dx="0.2" dy="0.2"/>
<feGaussianBlur stdDeviation="0.2"/>
<feColorMatrix type="matrix" values="0 0 0 0 0 0 0 0 0 0 0 0 0 0 0 0 0 0 0.25 0"/>
<feBlend mode="normal" in2="BackgroundImageFix" result="effect1_dropShadow_28995_7399"/>
<feBlend mode="normal" in="SourceGraphic" in2="effect1_dropShadow_28995_7399" result="shape"/>
<feColorMatrix in="SourceAlpha" type="matrix" values="0 0 0 0 0 0 0 0 0 0 0 0 0 0 0 0 0 0 127 0" result="hardAlpha"/>
<feOffset/>
<feGaussianBlur stdDeviation="1"/>
<feComposite in2="hardAlpha" operator="arithmetic" k2="-1" k3="1"/>
<feColorMatrix type="matrix" values="0 0 0 0 0 0 0 0 0 0 0 0 0 0 0 0 0 0 1 0"/>
<feBlend mode="normal" in2="shape" result="effect2_innerShadow_28995_7399"/>
</filter>
<filter id="filter1_di_28995_7399" x="17.8861" y="0.8" width="6.62779" height="4.79475" filterUnits="userSpaceOnUse" color-interpolation-filters="sRGB">
<feFlood flood-opacity="0" result="BackgroundImageFix"/>
<feColorMatrix in="SourceAlpha" type="matrix" values="0 0 0 0 0 0 0 0 0 0 0 0 0 0 0 0 0 0 127 0" result="hardAlpha"/>
<feOffset dx="0.2" dy="0.2"/>
<feGaussianBlur stdDeviation="0.2"/>
<feColorMatrix type="matrix" values="0 0 0 0 0 0 0 0 0 0 0 0 0 0 0 0 0 0 0.25 0"/>
<feBlend mode="normal" in2="BackgroundImageFix" result="effect1_dropShadow_28995_7399"/>
<feBlend mode="normal" in="SourceGraphic" in2="effect1_dropShadow_28995_7399" result="shape"/>
<feColorMatrix in="SourceAlpha" type="matrix" values="0 0 0 0 0 0 0 0 0 0 0 0 0 0 0 0 0 0 127 0" result="hardAlpha"/>
<feOffset/>
<feGaussianBlur stdDeviation="1"/>
<feComposite in2="hardAlpha" operator="arithmetic" k2="-1" k3="1"/>
<feColorMatrix type="matrix" values="0 0 0 0 0 0 0 0 0 0 0 0 0 0 0 0 0 0 1 0"/>
<feBlend mode="normal" in2="shape" result="effect2_innerShadow_28995_7399"/>
</filter>
<filter id="filter2_d_28995_7399" x="44.2344" y="4.64746" width="19.2832" height="8.95996" filterUnits="userSpaceOnUse" color-interpolation-filters="sRGB">
<feFlood flood-opacity="0" result="BackgroundImageFix"/>
<feColorMatrix in="SourceAlpha" type="matrix" values="0 0 0 0 0 0 0 0 0 0 0 0 0 0 0 0 0 0 127 0" result="hardAlpha"/>
<feOffset/>
<feGaussianBlur stdDeviation="0.25"/>
<feColorMatrix type="matrix" values="0 0 0 0 0 0 0 0 0 0 0 0 0 0 0 0 0 0 0.25 0"/>
<feBlend mode="normal" in2="BackgroundImageFix" result="effect1_dropShadow_28995_7399"/>
<feBlend mode="normal" in="SourceGraphic" in2="effect1_dropShadow_28995_7399" result="shape"/>
</filter>
<linearGradient id="paint0_linear_28995_7399" x1="1.26136" y1="6.48322" x2="46.0584" y2="-5.3719" gradientUnits="userSpaceOnUse">
<stop stop-color="#505BF5"/>
<stop offset="0.338542" stop-color="#A625E1"/>
<stop offset="0.65625" stop-color="#DF4A5F"/>
<stop offset="1" stop-color="#F2AA47"/>
</linearGradient>
<linearGradient id="paint1_linear_28995_7399" x1="9.28368" y1="8.99951" x2="2.22391" y2="6.62339" gradientUnits="userSpaceOnUse">
<stop stop-color="#FCEFB5"/>
<stop offset="0.338542" stop-color="#EAC260"/>
<stop offset="0.661458" stop-color="#EFE0B0"/>
<stop offset="1" stop-color="#EAC15F"/>
</linearGradient>
<linearGradient id="paint2_linear_28995_7399" x1="35.4216" y1="0.707345" x2="27.8708" y2="9.94946" gradientUnits="userSpaceOnUse">
<stop stop-color="#EAC260"/>
<stop offset="0.25" stop-color="#EFE0B0"/>
<stop offset="0.484375" stop-color="#EAC260"/>
<stop offset="0.729167" stop-color="#EFE0B0"/>
<stop offset="1" stop-color="#EAC260"/>
</linearGradient>
<linearGradient id="paint3_linear_28995_7399" x1="-9.02234" y1="5.79845" x2="34.4948" y2="17.3149" gradientUnits="userSpaceOnUse">
<stop stop-color="#505BF5"/>
<stop offset="0.338542" stop-color="#A625E1"/>
<stop offset="0.65625" stop-color="#DF4A5F"/>
<stop offset="1" stop-color="#F2AA47"/>
</linearGradient>
<linearGradient id="paint4_linear_28995_7399" x1="30.8877" y1="8.99951" x2="37.9475" y2="6.62339" gradientUnits="userSpaceOnUse">
<stop stop-color="#FCEFB5"/>
<stop offset="0.338542" stop-color="#EAC260"/>
<stop offset="0.661458" stop-color="#EFE0B0"/>
<stop offset="1" stop-color="#EAC15F"/>
</linearGradient>
<linearGradient id="paint5_linear_28995_7399" x1="31.4169" y1="1.10758" x2="23.8717" y2="10.343" gradientUnits="userSpaceOnUse">
<stop stop-color="#EAC260"/>
<stop offset="0.25" stop-color="#EFE0B0"/>
<stop offset="0.484375" stop-color="#EAC260"/>
<stop offset="0.729167" stop-color="#EFE0B0"/>
<stop offset="1" stop-color="#EAC260"/>
</linearGradient>
<linearGradient id="paint6_linear_28995_7399" x1="4.64913" y1="7.55531" x2="35.2684" y2="15.6584" gradientUnits="userSpaceOnUse">
<stop stop-color="#505BF5"/>
<stop offset="0.338542" stop-color="#A625E1"/>
<stop offset="0.65625" stop-color="#DF4A5F"/>
<stop offset="1" stop-color="#F2AA47"/>
</linearGradient>
<linearGradient id="paint7_linear_28995_7399" x1="26.8864" y1="9.39372" x2="33.941" y2="7.01933" gradientUnits="userSpaceOnUse">
<stop stop-color="#FCEFB5"/>
<stop offset="0.338542" stop-color="#EAC260"/>
<stop offset="0.661458" stop-color="#EFE0B0"/>
<stop offset="1" stop-color="#EAC15F"/>
</linearGradient>
<linearGradient id="paint8_linear_28995_7399" x1="3.41019" y1="9.12902" x2="27.0267" y2="25.6856" gradientUnits="userSpaceOnUse">
<stop stop-color="#505BF5"/>
<stop offset="0.338542" stop-color="#A625E1"/>
<stop offset="0.65625" stop-color="#DF4A5F"/>
<stop offset="1" stop-color="#F2AA47"/>
</linearGradient>
<linearGradient id="paint9_linear_28995_7399" x1="10.5606" y1="9.12901" x2="30.5325" y2="9.12901" gradientUnits="userSpaceOnUse">
<stop offset="0.0677083" stop-color="#EAC260"/>
<stop offset="0.151042" stop-color="#FBF3D9"/>
<stop offset="0.203125" stop-color="#EAC260"/>
<stop offset="0.395833" stop-color="#FBF3D9"/>
<stop offset="0.520833" stop-color="#EAC260"/>
<stop offset="0.651042" stop-color="#FBF3D9"/>
<stop offset="0.776042" stop-color="#EAC260"/>
<stop offset="0.864583" stop-color="#EAC260"/>
<stop offset="0.90615" stop-color="#FBF3D9"/>
<stop offset="1" stop-color="#EAC260"/>
</linearGradient>
<linearGradient id="paint10_linear_28995_7399" x1="3.00001" y1="3.5" x2="28.767" y2="19.738" gradientUnits="userSpaceOnUse">
<stop stop-color="#505BF5"/>
<stop offset="0.338542" stop-color="#A625E1"/>
<stop offset="0.65625" stop-color="#DF4A5F"/>
<stop offset="1" stop-color="#F2AA47"/>
</linearGradient>
<linearGradient id="paint11_linear_28995_7399" x1="18" y1="-5.97671e-07" x2="24.2137" y2="5.53909" gradientUnits="userSpaceOnUse">
<stop stop-color="white" stop-opacity="0.8"/>
<stop offset="1" stop-color="white" stop-opacity="0.29"/>
</linearGradient>
<linearGradient id="paint12_linear_28995_7399" x1="17.2039" y1="3.37499" x2="24.4664" y2="3.37499" gradientUnits="userSpaceOnUse">
<stop offset="0.0677083" stop-color="#EAC260"/>
<stop offset="0.151042" stop-color="#FBF3D9"/>
<stop offset="0.203125" stop-color="#EAC260"/>
<stop offset="0.395833" stop-color="#FBF3D9"/>
<stop offset="0.520833" stop-color="#EAC260"/>
<stop offset="0.651042" stop-color="#FBF3D9"/>
<stop offset="0.776042" stop-color="#EAC260"/>
<stop offset="0.864583" stop-color="#EAC260"/>
<stop offset="0.90615" stop-color="#FBF3D9"/>
<stop offset="1" stop-color="#EAC260"/>
</linearGradient>
<linearGradient id="paint13_linear_28995_7399" x1="53.2224" y1="3" x2="53.2224" y2="15" gradientUnits="userSpaceOnUse">
<stop stop-color="#505BF5"/>
<stop offset="0.3125" stop-color="#A625E1"/>
<stop offset="0.666667" stop-color="#DF4A5F"/>
<stop offset="1" stop-color="#F2AA47"/>
</linearGradient>
<linearGradient id="paint14_linear_28995_7399" x1="50.5" y1="3" x2="57.5" y2="16" gradientUnits="userSpaceOnUse">
<stop stop-color="#F4E9C6"/>
<stop offset="1" stop-color="#EBB760"/>
</linearGradient>
<linearGradient id="paint15_linear_28995_7399" x1="50.875" y1="5.3" x2="50.1902" y2="11.5815" gradientUnits="userSpaceOnUse">
<stop stop-color="#FCF9EB"/>
<stop offset="1" stop-color="white"/>
</linearGradient>
<linearGradient id="paint16_linear_28995_7399" x1="8.85669" y1="1.10758" x2="16.4019" y2="10.343" gradientUnits="userSpaceOnUse">
<stop stop-color="#EAC260"/>
<stop offset="0.25" stop-color="#EFE0B0"/>
<stop offset="0.484375" stop-color="#EAC260"/>
<stop offset="0.729167" stop-color="#EFE0B0"/>
<stop offset="1" stop-color="#EAC260"/>
</linearGradient>
<linearGradient id="paint17_linear_28995_7399" x1="2.8622" y1="7.55531" x2="33.4814" y2="-0.547779" gradientUnits="userSpaceOnUse">
<stop stop-color="#505BF5"/>
<stop offset="0.338542" stop-color="#A625E1"/>
<stop offset="0.65625" stop-color="#DF4A5F"/>
<stop offset="1" stop-color="#F2AA47"/>
</linearGradient>
<linearGradient id="paint18_linear_28995_7399" x1="13.3872" y1="9.39372" x2="6.33258" y2="7.01933" gradientUnits="userSpaceOnUse">
<stop stop-color="#FCEFB5"/>
<stop offset="0.338542" stop-color="#EAC260"/>
<stop offset="0.661458" stop-color="#EFE0B0"/>
<stop offset="1" stop-color="#EAC15F"/>
</linearGradient>
</defs>
</svg>
