<svg version="1.2" xmlns="http://www.w3.org/2000/svg" viewBox="0 0 319 648" width="319" height="648">
	<title>iphone6s-black-svg</title>
	<style>
		.s0 { fill: #2b2b2b } 
		.s1 { opacity: .2;fill: none;stroke: #ffffff;stroke-width: 2.7 } 
		.s2 { opacity: .2;fill: #ffffff } 
		.s3 { fill: #000000 } 
	</style>
	<g id="Layer">
		<path id="Layer" fill-rule="evenodd" class="s0" d="m40.5 0h237.1c22.4 0 40.5 18.1 40.5 40.5v566.4c0 22.4-18.1 40.5-40.5 40.5h-237.1c-22.4-0.1-40.5-18.2-40.5-40.6v-566.3c0-22.4 18.1-40.5 40.5-40.5z"/>
		<path id="Layer" class="s1" d="m177.9 610.7c0 10.5-8.4 18.9-18.9 18.9-10.5 0-18.9-8.5-18.9-18.9 0-10.5 8.5-18.9 18.9-18.9 10.4 0 18.9 8.5 18.9 18.9z"/>
		<g id="Layer">
			<path id="Layer" fill-rule="evenodd" class="s2" d="m134.4 28.3h58c1.5 0 2.7 1.2 2.7 2.7 0 1.5-1.2 2.7-2.7 2.7h-58c-1.5 0-2.7-1.2-2.7-2.7 0-1.5 1.2-2.7 2.7-2.7z"/>
			<path id="Layer" class="s3" d="m99.3 36.4c-3 0-5.4-2.4-5.4-5.4 0-3 2.4-5.4 5.4-5.4 3 0 5.4 2.4 5.4 5.4 0 3-2.4 5.4-5.4 5.4z"/>
		</g>
	</g>
</svg>