<svg width="100" height="25" viewBox="0 0 100 25" fill="none" xmlns="http://www.w3.org/2000/svg">
<path d="M26.5206 8.61304L36.5362 8.61304L36.5362 10.4775L32.5927 10.4775L32.5927 20.9881L30.4312 20.9881L30.4312 10.4775L26.5042 10.4775L26.5206 8.61304ZM36.1072 12.0285L37.9552 12.0285L37.9552 13.761L37.9882 13.761C38.0542 13.5135 38.1697 13.2825 38.3347 13.0515C38.4997 12.8205 38.6977 12.606 38.9452 12.4245C39.1762 12.2265 39.4402 12.078 39.7372 11.9625C40.0177 11.847 40.3147 11.781 40.6117 11.781C40.8427 11.781 41.0077 11.7975 41.0902 11.7975C41.1727 11.814 41.2717 11.8305 41.3542 11.8305L41.3542 13.728C41.2222 13.695 41.0737 13.6785 40.9252 13.662C40.7767 13.6455 40.6447 13.629 40.4962 13.629C40.1662 13.629 39.8527 13.695 39.5557 13.827C39.2587 13.959 39.0112 14.157 38.7802 14.4045C38.5657 14.6685 38.3842 14.982 38.2522 15.3615C38.1202 15.741 38.0542 16.1865 38.0542 16.6815L38.0542 20.9386L36.0742 20.9386L36.1072 12.0285ZM50.4292 20.9881L48.4822 20.9881L48.4822 19.7341L48.4492 19.7341C48.2017 20.1961 47.8387 20.5426 47.3602 20.8231C46.8817 21.1036 46.3867 21.2356 45.8917 21.2356C44.7202 21.2356 43.8622 20.9551 43.3342 20.3611C42.8062 19.7835 42.5422 18.8925 42.5422 17.721L42.5422 12.0285L44.5222 12.0285L44.5222 17.523C44.5222 18.315 44.6707 18.876 44.9842 19.1895C45.2812 19.5195 45.7102 19.6845 46.2547 19.6845C46.6672 19.6845 47.0137 19.6186 47.2942 19.4866C47.5747 19.3546 47.8057 19.1895 47.9707 18.975C48.1522 18.7605 48.2677 18.4965 48.3502 18.1995C48.4327 17.9025 48.4657 17.5725 48.4657 17.226L48.4657 12.0285L50.4457 12.0285L50.4457 20.9881L50.4292 20.9881ZM53.7952 18.117C53.8612 18.6945 54.0757 19.0905 54.4552 19.3381C54.8347 19.5691 55.2967 19.6845 55.8247 19.6845C56.0062 19.6845 56.2207 19.668 56.4517 19.635C56.6827 19.602 56.9137 19.5525 57.1117 19.47C57.3262 19.3875 57.4912 19.272 57.6232 19.107C57.7552 18.942 57.8212 18.744 57.8047 18.4965C57.7882 18.249 57.7057 18.0345 57.5242 17.8695C57.3427 17.7045 57.1282 17.589 56.8642 17.4735C56.6002 17.3745 56.2867 17.292 55.9402 17.226C55.5937 17.16 55.2472 17.0775 54.8842 16.995C54.5212 16.9125 54.1582 16.8135 53.8117 16.698C53.4652 16.5825 53.1682 16.434 52.8877 16.2195C52.6237 16.0215 52.3927 15.774 52.2442 15.4605C52.0792 15.147 51.9967 14.784 51.9967 14.322C51.9967 13.827 52.1122 13.431 52.3597 13.101C52.5907 12.771 52.9042 12.507 53.2672 12.309C53.6302 12.111 54.0427 11.9625 54.4882 11.88C54.9337 11.7975 55.3627 11.7645 55.7587 11.7645C56.2207 11.7645 56.6662 11.814 57.0787 11.913C57.4912 12.012 57.8872 12.1605 58.2172 12.3915C58.5637 12.606 58.8442 12.903 59.0587 13.2495C59.2897 13.596 59.4217 14.025 59.4877 14.52L57.4252 14.52C57.3262 14.0415 57.1117 13.728 56.7817 13.563C56.4352 13.398 56.0557 13.3155 55.6102 13.3155C55.4782 13.3155 55.2967 13.332 55.1152 13.3485C54.9172 13.3815 54.7522 13.4145 54.5707 13.4805C54.4057 13.5465 54.2572 13.6455 54.1417 13.761C54.0262 13.8765 53.9602 14.0415 53.9602 14.2395C53.9602 14.487 54.0427 14.6685 54.2077 14.817C54.3727 14.9655 54.5872 15.081 54.8677 15.1965C55.1317 15.2955 55.4452 15.378 55.7917 15.444C56.1382 15.51 56.5012 15.5925 56.8642 15.675C57.2272 15.7575 57.5737 15.8565 57.9202 15.972C58.2667 16.0875 58.5802 16.236 58.8442 16.4505C59.1082 16.6485 59.3392 16.896 59.5042 17.193C59.6692 17.49 59.7517 17.8695 59.7517 18.2985C59.7517 18.8265 59.6362 19.272 59.3887 19.6515C59.1412 20.0146 58.8277 20.3281 58.4482 20.5591C58.0687 20.7901 57.6232 20.9551 57.1612 21.0706C56.6827 21.1696 56.2207 21.2356 55.7587 21.2356C55.1977 21.2356 54.6697 21.1696 54.1912 21.0376C53.7127 20.9056 53.2837 20.7076 52.9372 20.4601C52.5907 20.1961 52.3102 19.8826 52.1122 19.4865C51.9142 19.107 51.7987 18.645 51.7822 18.1005L53.7787 18.1005L53.7787 18.117L53.7952 18.117ZM60.3127 12.0285L61.8142 12.0285L61.8142 9.32253L63.7942 9.32253L63.7942 12.012L65.5762 12.012L65.5762 13.4805L63.7942 13.4805L63.7942 18.2655C63.7942 18.48 63.8107 18.645 63.8272 18.81C63.8437 18.9585 63.8932 19.0905 63.9427 19.1895C64.0087 19.2885 64.1077 19.371 64.2232 19.4205C64.3552 19.4701 64.5202 19.5031 64.7512 19.5031C64.8832 19.5031 65.0317 19.503 65.1637 19.4865C65.2957 19.47 65.4442 19.4535 65.5762 19.4205L65.5762 20.955C65.3617 20.988 65.1472 21.0045 64.9327 21.021C64.7182 21.054 64.5202 21.0541 64.2892 21.0541C63.7612 21.0541 63.3487 21.0046 63.0352 20.9056C62.7217 20.8066 62.4742 20.6581 62.2927 20.4766C62.1112 20.2785 61.9957 20.0475 61.9297 19.767C61.8637 19.4865 61.8307 19.14 61.8142 18.777L61.8142 13.497L60.3127 13.497L60.3127 11.9955L60.3127 12.0285ZM66.9622 12.0285L68.8267 12.0285L68.8267 13.2495L68.8597 13.2495C69.1402 12.7215 69.5197 12.3585 70.0147 12.1275C70.5097 11.8965 71.0377 11.781 71.6317 11.781C72.3412 11.781 72.9517 11.8965 73.4797 12.1605C74.0077 12.408 74.4367 12.738 74.7832 13.1835C75.1297 13.6125 75.3937 14.124 75.5587 14.7015C75.7237 15.279 75.8227 15.906 75.8227 16.5495C75.8227 17.16 75.7402 17.7375 75.5917 18.2985C75.4267 18.8595 75.1957 19.371 74.8822 19.8C74.5687 20.229 74.1727 20.5755 73.6777 20.8395C73.1827 21.1035 72.6217 21.2356 71.9617 21.2356C71.6812 21.2356 71.3842 21.2026 71.1037 21.1531C70.8232 21.1036 70.5427 21.0211 70.2787 20.9056C70.0147 20.7901 69.7672 20.6415 69.5527 20.46C69.3217 20.2785 69.1402 20.0641 68.9917 19.833L68.9587 19.833L68.9587 24.3046L66.9787 24.3046L66.9787 12.0285L66.9622 12.0285ZM73.8757 16.5165C73.8757 16.1205 73.8262 15.7245 73.7107 15.345C73.6117 14.9655 73.4467 14.6355 73.2322 14.3385C73.0177 14.0415 72.7537 13.8105 72.4567 13.629C72.1432 13.4475 71.7802 13.365 71.3842 13.365C70.5592 13.365 69.9322 13.6455 69.5032 14.223C69.0907 14.8005 68.8762 15.576 68.8762 16.533C68.8762 16.995 68.9257 17.4075 69.0412 17.787C69.1567 18.1665 69.3052 18.4965 69.5362 18.777C69.7507 19.0575 70.0147 19.272 70.3282 19.437C70.6417 19.602 70.9882 19.6845 71.4007 19.6845C71.8627 19.6845 72.2257 19.5855 72.5392 19.404C72.8527 19.2225 73.1002 18.975 73.3147 18.6945C73.5127 18.3975 73.6612 18.0675 73.7437 17.688C73.8262 17.292 73.8757 16.9125 73.8757 16.5165ZM77.3572 8.61303L79.3372 8.61303L79.3372 10.4775L77.3572 10.4775L77.3572 8.61303ZM77.3572 12.0285L79.3372 12.0285L79.3372 20.9881L77.3572 20.9881L77.3572 12.0285ZM81.1027 8.61303L83.0827 8.61303L83.0827 20.9881L81.1027 20.9881L81.1027 8.61303ZM89.1217 21.2356C88.4122 21.2356 87.7687 21.12 87.2077 20.8725C86.6467 20.625 86.1847 20.3115 85.7887 19.899C85.4092 19.4865 85.1122 18.975 84.9142 18.3975C84.7162 17.82 84.6007 17.1765 84.6007 16.5C84.6007 15.8235 84.6997 15.1965 84.9142 14.619C85.1122 14.0415 85.4092 13.5465 85.7887 13.1175C86.1682 12.705 86.6467 12.375 87.2077 12.144C87.7687 11.913 88.4122 11.781 89.1217 11.781C89.8312 11.781 90.4747 11.8965 91.0357 12.144C91.5967 12.375 92.0587 12.705 92.4547 13.1175C92.8342 13.53 93.1312 14.0415 93.3292 14.619C93.5272 15.1965 93.6427 15.8235 93.6427 16.5C93.6427 17.193 93.5437 17.82 93.3292 18.3975C93.1147 18.975 92.8342 19.47 92.4547 19.899C92.0752 20.3115 91.5967 20.6415 91.0357 20.8725C90.4747 21.1035 89.8477 21.2356 89.1217 21.2356ZM89.1217 19.668C89.5507 19.668 89.9467 19.569 90.2602 19.3875C90.5902 19.206 90.8377 18.9585 91.0522 18.6615C91.2667 18.3645 91.4152 18.018 91.5142 17.655C91.6132 17.2755 91.6627 16.896 91.6627 16.5C91.6627 16.1205 91.6132 15.741 91.5142 15.3615C91.4152 14.982 91.2667 14.652 91.0522 14.355C90.8377 14.058 90.5737 13.827 90.2602 13.6455C89.9302 13.464 89.5507 13.365 89.1217 13.365C88.6927 13.365 88.2967 13.464 87.9832 13.6455C87.6532 13.827 87.4057 14.0745 87.1912 14.355C86.9767 14.652 86.8282 14.982 86.7292 15.3615C86.6302 15.741 86.5807 16.1205 86.5807 16.5C86.5807 16.896 86.6302 17.2755 86.7292 17.655C86.8282 18.0345 86.9767 18.3645 87.1912 18.6615C87.4057 18.9585 87.6697 19.206 87.9832 19.3875C88.3132 19.5855 88.6927 19.668 89.1217 19.668ZM94.2367 12.0285L95.7383 12.0285L95.7383 9.32253L97.7183 9.32253L97.7183 12.012L99.5003 12.012L99.5003 13.4805L97.7183 13.4805L97.7183 18.2655C97.7183 18.48 97.7348 18.645 97.7513 18.81C97.7678 18.9585 97.8173 19.0905 97.8668 19.1895C97.9328 19.2885 98.0318 19.371 98.1473 19.4205C98.2793 19.47 98.4443 19.503 98.6753 19.503C98.8073 19.503 98.9558 19.503 99.0878 19.4865C99.2198 19.47 99.3683 19.4535 99.5003 19.4205L99.5003 20.955C99.2858 20.988 99.0713 21.0045 98.8568 21.021C98.6423 21.054 98.4443 21.054 98.2133 21.054C97.6853 21.054 97.2728 21.0045 96.9593 20.9055C96.6458 20.8065 96.3982 20.658 96.2168 20.4765C96.0352 20.2785 95.9198 20.0475 95.8538 19.767C95.7878 19.4865 95.7548 19.14 95.7383 18.777L95.7383 13.497L94.2367 13.497L94.2367 11.9955L94.2367 12.0285Z" fill="black"/>
<path d="M24.2103 8.61301L15.1518 8.61301L12.3633 -1.03714e-06L9.55827 8.61302L0.499757 8.59652L7.82577 13.926L5.02077 22.539L12.3468 17.2095L19.6728 22.539L16.8843 13.926L24.2103 8.61301Z" fill="#00B67A"/>
<path d="M17.5115 15.873L16.8845 13.926L12.3635 17.2095L17.5115 15.873Z" fill="#005128"/>
</svg>
